<svg xmlns="http://www.w3.org/2000/svg" width="1948" height="538" viewBox="0 0 1948 538">
<g>
<path d="M 145.50 522.03 C137.54,523.12 54.89,523.85 45.00,522.92 C30.35,521.55 17.56,514.91 13.63,506.64 C9.12,497.13 9.07,495.59 8.96,375.83 C8.86,265.25 8.91,262.36 10.84,256.85 C11.93,253.74 13.36,250.14 14.01,248.85 C16.19,244.54 24.24,238.16 30.43,235.82 C36.47,233.54 36.75,233.53 89.00,233.52 C135.71,233.50 142.88,233.71 154.00,235.41 C169.95,237.85 185.74,244.03 197.43,252.40 C202.60,256.11 215.80,269.72 217.57,273.16 C218.51,275.00 220.32,277.74 221.58,279.25 C222.86,280.79 224.18,284.11 224.57,286.75 C224.94,289.36 226.10,293.75 227.13,296.50 C229.41,302.59 229.65,315.58 227.59,321.47 C226.81,323.68 225.47,328.56 224.61,332.31 C222.51,341.46 217.78,348.77 207.00,359.50 C202.05,364.43 198.00,369.16 198.00,370.02 C198.00,371.69 204.72,377.60 209.25,379.93 C210.77,380.71 215.61,384.93 220.01,389.32 C232.28,401.53 237.64,413.19 240.16,433.11 C241.24,441.72 241.15,443.97 239.26,455.37 C238.10,462.34 236.33,469.59 235.32,471.48 C229.57,482.33 226.14,487.74 222.33,491.98 C217.46,497.40 198.99,510.31 194.53,511.41 C192.90,511.82 189.30,513.22 186.52,514.53 C180.12,517.56 170.71,519.71 160.50,520.48 C156.10,520.81 149.35,521.51 145.50,522.03 ZM 795.92 301.52 C787.77,303.23 787.56,303.23 775.07,301.41 C755.52,298.57 740.69,290.70 725.78,275.28 C720.45,269.78 712.00,257.27 712.00,254.91 C712.00,254.42 710.63,251.21 708.96,247.77 C703.49,236.47 702.61,210.79 707.30,199.50 C708.45,196.75 711.88,190.23 714.93,185.00 C719.49,177.20 722.94,173.07 734.24,161.90 C744.72,151.54 748.00,147.70 748.00,145.77 C748.00,142.45 746.27,142.07 735.59,143.05 C722.30,144.26 717.57,142.41 712.61,134.06 C707.94,126.18 706.26,118.28 708.08,112.75 C711.59,102.08 722.33,93.79 734.22,92.55 C750.56,90.85 767.32,88.78 775.50,87.45 C780.45,86.64 790.12,85.53 797.00,84.98 C803.88,84.42 812.20,83.56 815.50,83.07 C827.70,81.24 828.97,81.49 834.78,86.89 C837.67,89.57 841.30,93.36 842.84,95.30 C844.39,97.24 850.41,103.93 856.22,110.17 C862.04,116.40 868.47,123.53 870.52,126.00 C874.76,131.13 882.70,139.57 895.00,152.06 C909.73,167.00 926.46,185.09 927.40,187.07 C928.73,189.89 924.59,195.24 911.80,207.23 C905.77,212.88 889.51,228.81 875.67,242.64 C861.83,256.46 846.88,271.09 842.46,275.14 C832.74,284.04 818.87,293.51 811.74,296.11 C808.86,297.16 805.71,298.48 804.74,299.03 C803.77,299.58 799.80,300.70 795.92,301.52 ZM 582.67 520.84 C574.18,525.02 569.56,524.90 560.50,520.25 C555.28,517.57 552.62,514.62 549.94,508.50 C547.92,503.90 547.76,502.03 547.89,485.00 C547.96,474.83 548.69,460.88 549.51,454.00 C552.09,432.23 554.00,408.24 554.00,397.64 C554.00,387.69 554.09,387.27 557.19,383.06 C560.19,378.98 560.39,378.16 560.63,369.11 C561.05,352.98 559.53,338.20 557.09,334.91 C555.94,333.35 555.00,331.79 555.00,331.43 C555.00,330.52 546.55,310.93 542.52,302.50 C540.68,298.65 537.60,291.23 535.68,286.00 C533.75,280.77 529.44,269.52 526.09,260.99 C522.74,252.46 520.00,245.05 520.00,244.53 C520.00,244.01 518.46,240.19 516.59,236.04 C513.35,228.89 512.27,225.99 508.03,213.00 C501.68,193.54 500.74,189.23 499.69,174.72 C498.24,154.60 499.64,137.25 503.52,127.50 C511.34,107.83 529.34,90.13 547.00,84.75 C550.03,83.83 554.97,82.30 558.00,81.35 C566.26,78.77 577.57,79.16 588.50,82.40 C604.13,87.04 617.68,96.78 628.82,111.38 C635.64,120.32 637.10,123.32 640.62,135.50 C643.20,144.47 643.50,146.95 643.45,159.61 C643.42,169.28 642.90,175.56 641.80,179.61 C640.92,182.85 639.45,189.54 638.53,194.48 C637.61,199.42 636.04,205.50 635.04,207.98 C634.04,210.47 632.30,215.65 631.18,219.50 C628.53,228.59 627.27,232.21 624.25,239.50 C622.88,242.80 621.10,247.30 620.30,249.50 C619.50,251.70 617.80,255.58 616.53,258.11 C615.26,260.65 613.91,264.12 613.54,265.82 C613.16,267.53 611.70,271.30 610.29,274.21 C607.86,279.23 606.70,282.27 600.51,300.00 C599.07,304.12 596.79,309.87 595.44,312.78 C594.10,315.68 593.00,318.48 593.00,319.01 C593.00,319.97 587.79,330.79 583.41,338.95 C581.17,343.11 581.02,344.38 581.11,358.45 L 581.21 373.50 L 585.82 382.00 L 590.42 390.50 L 591.14 421.00 C591.53,437.77 592.32,453.52 592.90,456.00 C593.48,458.48 593.98,465.00 594.01,470.50 C594.04,476.00 594.71,483.42 595.50,487.00 C597.46,495.90 597.35,499.58 594.92,506.50 C591.96,514.90 589.95,517.26 582.67,520.84 ZM 779.50 266.69 C785.82,269.65 787.41,269.96 795.83,269.98 C806.07,270.00 816.93,267.71 826.07,263.61 C832.47,260.74 842.23,251.16 847.07,243.00 C848.86,239.98 852.52,234.93 855.20,231.79 C857.88,228.65 860.77,224.37 861.63,222.29 C862.49,220.21 863.78,217.15 864.50,215.50 C870.19,202.41 869.17,193.82 859.71,175.17 C852.82,161.59 841.76,152.69 825.21,147.39 C814.66,144.02 807.23,144.38 794.24,148.92 C784.08,152.46 778.40,155.70 767.59,164.11 C760.47,169.65 755.81,175.54 750.25,186.03 C745.87,194.27 744.00,197.48 743.24,200.93 C742.67,203.50 742.72,206.20 742.82,211.23 C742.84,212.12 742.85,213.08 742.87,214.13 C743.07,226.83 743.27,228.10 745.79,232.77 C747.28,235.52 749.80,240.18 751.39,243.13 C754.56,249.00 764.13,258.95 769.25,261.69 C771.04,262.64 775.65,264.90 779.50,266.69 ZM 1409.93 350.36 C1409.50,350.45 1409.12,350.53 1408.77,350.61 C1407.42,350.90 1406.58,351.08 1405.86,350.86 C1404.49,350.45 1403.55,348.58 1400.35,343.25 C1385.13,317.95 1351.97,292.80 1329.51,289.53 C1319.97,288.14 1316.00,284.15 1316.00,275.92 C1316.00,270.71 1318.42,266.69 1325.25,260.54 C1330.06,256.21 1332.01,254.91 1341.38,249.80 C1347.90,246.24 1351.00,248.39 1351.00,256.45 C1351.00,259.76 1351.52,262.19 1352.39,262.91 C1353.83,264.10 1354.75,263.12 1367.32,247.00 C1372.37,240.52 1375.56,239.14 1385.63,239.06 C1394.91,238.98 1395.35,239.53 1394.44,249.94 C1393.77,257.72 1393.82,258.00 1395.87,258.00 C1398.37,258.00 1406.70,250.02 1409.23,245.21 C1412.26,239.43 1420.95,237.39 1428.94,240.59 C1433.50,242.42 1434.38,244.23 1434.45,251.98 C1434.52,259.29 1436.48,259.69 1442.88,253.71 C1445.51,251.25 1448.64,248.93 1449.85,248.55 C1452.60,247.68 1460.61,250.33 1464.15,253.29 C1467.97,256.49 1473.00,264.94 1473.00,268.17 C1473.00,270.76 1467.35,282.61 1464.49,286.00 C1463.80,286.83 1462.32,289.30 1461.20,291.50 C1458.34,297.15 1452.65,303.46 1446.11,308.25 C1438.88,313.55 1427.27,325.17 1423.11,331.28 C1421.32,333.91 1418.34,339.14 1416.48,342.90 C1413.59,348.74 1412.65,349.82 1409.93,350.36 ZM 80.66 462.75 L 83.01 465.10 L 115.26 464.80 L 147.50 464.50 L 154.18 461.34 C164.43,456.48 169.28,451.43 173.02,441.68 C175.39,435.52 176.03,432.51 175.63,429.50 C174.88,424.01 170.75,415.82 166.79,412.01 C162.10,407.49 150.71,402.43 142.31,401.12 C133.21,399.70 88.79,399.65 83.74,401.06 C77.29,402.85 76.99,404.04 77.04,427.58 C77.11,454.68 77.63,459.72 80.66,462.75 ZM 1908.00 271.51 C1904.04,274.18 1894.07,275.33 1885.50,274.11 C1873.07,272.35 1860.15,262.17 1853.82,249.16 C1851.05,243.45 1850.53,241.18 1850.20,233.22 C1849.82,224.33 1849.95,223.64 1853.25,216.72 C1858.34,206.07 1864.50,199.77 1874.56,194.97 C1882.35,191.25 1883.45,191.00 1891.90,191.00 C1907.44,191.00 1920.00,197.32 1929.20,209.77 C1935.04,217.67 1936.29,221.90 1936.39,234.00 C1936.47,243.56 1936.22,245.01 1933.68,250.22 C1929.63,258.51 1921.64,266.54 1916.00,267.99 C1913.53,268.63 1909.93,270.21 1908.00,271.51 ZM 89.29 347.28 C93.81,347.48 106.50,347.47 117.50,347.26 C137.10,346.89 137.63,346.82 143.80,343.97 C154.81,338.88 161.93,329.34 161.98,319.62 C162.01,311.89 160.17,307.45 154.59,301.88 C148.47,295.76 146.33,294.58 137.60,292.56 C129.39,290.66 91.47,290.35 84.40,292.13 C77.35,293.90 77.00,295.23 77.00,320.05 C77.00,339.73 77.14,341.39 79.04,344.06 C80.95,346.75 81.58,346.94 89.29,347.28 ZM 560.49 275.25 C560.92,278.47 561.59,280.00 562.59,280.00 C563.40,280.00 564.25,279.44 564.48,278.75 C565.39,276.05 565.76,106.44 564.86,104.75 C564.35,103.79 563.55,103.00 563.08,103.00 C561.79,103.00 555.00,110.27 555.00,111.65 C555.00,112.31 553.44,115.85 551.53,119.51 C549.62,123.18 547.78,127.82 547.43,129.84 C547.09,131.85 545.95,137.85 544.90,143.16 C542.60,154.85 542.48,168.39 544.53,184.00 C545.37,190.32 546.50,200.19 547.04,205.92 C547.59,211.64 548.74,219.07 549.62,222.42 C550.49,225.76 552.23,234.35 553.49,241.50 C554.75,248.65 556.70,258.10 557.82,262.50 C558.94,266.90 560.14,272.64 560.49,275.25 ZM 577.56 264.25 C578.02,267.03 578.66,268.00 580.05,268.00 C582.81,268.00 583.83,265.29 585.02,254.87 C585.60,249.73 587.41,240.35 589.04,234.03 C590.67,227.71 592.00,220.96 592.01,219.02 C592.01,217.08 592.87,211.90 593.92,207.50 C597.33,193.14 598.20,183.92 598.20,162.04 C598.20,144.37 597.90,139.69 596.52,136.00 C595.60,133.52 593.85,127.63 592.63,122.90 C591.15,117.18 589.25,112.70 586.95,109.51 C582.34,103.09 580.55,102.02 578.27,104.30 C576.60,105.97 576.51,110.60 576.72,183.29 C576.84,225.75 577.21,262.19 577.56,264.25 ZM 597.55 263.09 C599.33,265.96 603.23,260.51 605.05,252.58 C605.70,249.79 607.26,245.60 608.52,243.28 C609.79,240.96 611.36,237.36 612.02,235.28 C612.68,233.20 613.90,230.43 614.72,229.12 C615.54,227.81 617.25,223.08 618.51,218.62 C619.77,214.15 621.51,208.48 622.37,206.00 C623.24,203.52 624.68,198.12 625.59,194.00 C626.49,189.88 627.90,185.19 628.72,183.60 C632.21,176.79 631.96,144.48 628.35,136.09 C627.50,134.12 626.00,130.21 625.01,127.41 C624.03,124.62 621.71,120.31 619.86,117.85 C616.01,112.72 604.98,103.65 602.00,103.18 C600.29,102.91 600.00,103.42 600.00,106.71 C600.00,108.82 600.59,111.44 601.32,112.53 C603.65,116.02 605.80,123.33 606.47,130.00 C606.82,133.57 607.84,139.20 608.72,142.50 C610.96,150.85 610.89,179.05 608.61,187.46 C607.73,190.74 607.00,195.81 607.00,198.74 C607.00,203.38 602.60,228.23 601.44,230.09 C600.62,231.42 596.99,262.18 597.55,263.09 ZM 539.81 263.79 C541.60,268.20 542.83,269.98 543.93,269.76 C546.27,269.29 545.39,255.45 542.45,246.44 C541.18,242.55 539.63,234.69 539.00,228.98 C538.37,223.26 537.22,217.07 536.44,215.21 C532.93,206.80 531.71,194.18 531.85,167.50 C531.99,139.74 533.20,128.96 536.99,121.52 C538.09,119.35 539.00,116.79 539.00,115.82 C539.00,114.86 539.76,112.47 540.69,110.52 C541.92,107.95 542.08,106.68 541.28,105.88 C539.42,104.02 533.46,106.70 530.37,110.80 C528.83,112.84 526.37,115.73 524.88,117.23 C521.04,121.13 515.42,133.29 513.58,141.70 C511.53,151.05 511.53,170.79 513.58,185.32 C515.00,195.45 519.64,211.43 523.48,219.50 C524.27,221.15 525.88,225.88 527.06,230.00 C528.99,236.73 531.49,243.36 539.81,263.79 ZM 568.00 509.92 C572.15,511.66 577.07,510.40 580.83,506.63 C583.82,503.65 584.25,502.60 584.16,498.44 C584.08,494.48 583.51,493.09 580.84,490.33 C576.45,485.80 571.15,485.71 565.25,490.05 C560.47,493.56 559.59,495.58 560.49,500.93 C561.17,504.99 563.85,508.19 568.00,509.92 Z" fill="rgb(223,172,70)"/>
<path d="M 0.00 269.00 L 0.00 0.00 L 974.00 0.00 L 1948.00 0.00 L 1948.00 269.00 L 1948.00 538.00 L 974.00 538.00 L 0.00 538.00 L 0.00 269.00 ZM 145.50 522.03 C149.35,521.51 156.10,520.81 160.50,520.48 C170.71,519.71 180.12,517.56 186.52,514.53 C189.30,513.22 192.90,511.82 194.53,511.41 C198.99,510.31 217.46,497.40 222.33,491.98 C226.14,487.74 229.57,482.33 235.32,471.48 C236.33,469.59 238.10,462.34 239.26,455.37 C241.15,443.97 241.24,441.72 240.16,433.11 C237.64,413.19 232.28,401.53 220.01,389.32 C215.61,384.93 210.77,380.71 209.25,379.93 C204.72,377.60 198.00,371.69 198.00,370.02 C198.00,369.16 202.05,364.43 207.00,359.50 C217.78,348.77 222.51,341.46 224.61,332.31 C225.47,328.56 226.81,323.68 227.59,321.47 C229.65,315.58 229.41,302.59 227.13,296.50 C226.10,293.75 224.94,289.36 224.57,286.75 C224.18,284.11 222.86,280.79 221.58,279.25 C220.32,277.74 218.51,275.00 217.57,273.16 C215.80,269.72 202.60,256.11 197.43,252.40 C185.74,244.03 169.95,237.85 154.00,235.41 C142.88,233.71 135.71,233.50 89.00,233.52 C36.75,233.53 36.47,233.54 30.43,235.82 C24.24,238.16 16.19,244.54 14.01,248.85 C13.36,250.14 11.93,253.74 10.84,256.85 C8.91,262.36 8.86,265.25 8.96,375.83 C9.07,495.59 9.12,497.13 13.63,506.64 C17.56,514.91 30.35,521.55 45.00,522.92 C54.89,523.85 137.54,523.12 145.50,522.03 ZM 582.67 520.84 C589.95,517.26 591.96,514.90 594.92,506.50 C597.35,499.58 597.46,495.90 595.50,487.00 C594.71,483.42 594.04,476.00 594.01,470.50 C593.98,465.00 593.48,458.48 592.90,456.00 C592.32,453.52 591.53,437.77 591.14,421.00 L 590.42 390.50 L 585.82 382.00 L 581.21 373.50 L 581.11 358.45 C581.02,344.38 581.17,343.11 583.41,338.95 C587.79,330.79 593.00,319.97 593.00,319.01 C593.00,318.48 594.10,315.68 595.44,312.78 C596.79,309.87 599.07,304.12 600.51,300.00 C606.70,282.27 607.86,279.23 610.29,274.21 C611.70,271.30 613.16,267.53 613.54,265.82 C613.91,264.12 615.26,260.65 616.53,258.11 C617.80,255.58 619.50,251.70 620.30,249.50 C621.10,247.30 622.88,242.80 624.25,239.50 C627.27,232.21 628.53,228.59 631.18,219.50 C632.30,215.65 634.04,210.47 635.04,207.98 C636.04,205.50 637.61,199.42 638.53,194.48 C639.45,189.54 640.92,182.85 641.80,179.61 C642.90,175.56 643.42,169.28 643.45,159.61 C643.50,146.95 643.20,144.47 640.62,135.50 C637.10,123.32 635.64,120.32 628.82,111.38 C617.68,96.78 604.13,87.04 588.50,82.40 C577.57,79.16 566.26,78.77 558.00,81.35 C554.97,82.30 550.03,83.83 547.00,84.75 C529.34,90.13 511.34,107.83 503.52,127.50 C499.64,137.25 498.24,154.60 499.69,174.72 C500.74,189.23 501.68,193.54 508.03,213.00 C512.27,225.99 513.35,228.89 516.59,236.04 C518.46,240.19 520.00,244.01 520.00,244.53 C520.00,245.05 522.74,252.46 526.09,260.99 C529.44,269.52 533.75,280.77 535.68,286.00 C537.60,291.23 540.68,298.65 542.52,302.50 C546.55,310.93 555.00,330.52 555.00,331.43 C555.00,331.79 555.94,333.35 557.09,334.91 C559.53,338.20 561.05,352.98 560.63,369.11 C560.39,378.16 560.19,378.98 557.19,383.06 C554.09,387.27 554.00,387.69 554.00,397.64 C554.00,408.24 552.09,432.23 549.51,454.00 C548.69,460.88 547.96,474.83 547.89,485.00 C547.76,502.03 547.92,503.90 549.94,508.50 C552.62,514.62 555.28,517.57 560.50,520.25 C569.56,524.90 574.18,525.02 582.67,520.84 ZM 1409.93 350.36 C1412.65,349.82 1413.59,348.74 1416.48,342.90 C1418.34,339.14 1421.32,333.91 1423.11,331.28 C1427.27,325.17 1438.88,313.55 1446.11,308.25 C1452.65,303.46 1458.34,297.15 1461.20,291.50 C1462.32,289.30 1463.80,286.83 1464.49,286.00 C1467.35,282.61 1473.00,270.76 1473.00,268.17 C1473.00,264.94 1467.97,256.49 1464.15,253.29 C1460.61,250.33 1452.60,247.68 1449.85,248.55 C1448.64,248.93 1445.51,251.25 1442.88,253.71 C1436.48,259.69 1434.52,259.29 1434.45,251.98 C1434.38,244.23 1433.50,242.42 1428.94,240.59 C1420.95,237.39 1412.26,239.43 1409.23,245.21 C1406.70,250.02 1398.37,258.00 1395.87,258.00 C1393.82,258.00 1393.77,257.72 1394.44,249.94 C1395.35,239.53 1394.91,238.98 1385.63,239.06 C1375.56,239.14 1372.37,240.52 1367.32,247.00 C1354.75,263.12 1353.83,264.10 1352.39,262.91 C1351.52,262.19 1351.00,259.76 1351.00,256.45 C1351.00,248.39 1347.90,246.24 1341.38,249.80 C1332.01,254.91 1330.06,256.21 1325.25,260.54 C1318.42,266.69 1316.00,270.71 1316.00,275.92 C1316.00,284.15 1319.97,288.14 1329.51,289.53 C1351.97,292.80 1385.13,317.95 1400.35,343.25 C1405.66,352.09 1404.74,351.40 1409.93,350.36 ZM 795.92 301.52 C799.80,300.70 803.77,299.58 804.74,299.03 C805.71,298.48 808.86,297.16 811.74,296.11 C818.87,293.51 832.74,284.04 842.46,275.14 C846.88,271.09 861.83,256.46 875.67,242.64 C889.51,228.81 905.77,212.88 911.80,207.23 C924.59,195.24 928.73,189.89 927.40,187.07 C926.46,185.09 909.73,167.00 895.00,152.06 C882.70,139.57 874.76,131.13 870.52,126.00 C868.47,123.53 862.04,116.40 856.22,110.17 C850.41,103.93 844.39,97.24 842.84,95.30 C841.30,93.36 837.67,89.57 834.78,86.89 C828.97,81.49 827.70,81.24 815.50,83.07 C812.20,83.56 803.88,84.42 797.00,84.98 C790.12,85.53 780.45,86.64 775.50,87.45 C767.32,88.78 750.56,90.85 734.22,92.55 C722.33,93.79 711.59,102.08 708.08,112.75 C706.26,118.28 707.94,126.18 712.61,134.06 C717.57,142.41 722.30,144.26 735.59,143.05 C746.27,142.07 748.00,142.45 748.00,145.77 C748.00,147.70 744.72,151.54 734.24,161.90 C722.94,173.07 719.49,177.20 714.93,185.00 C711.88,190.23 708.45,196.75 707.30,199.50 C702.61,210.79 703.49,236.47 708.96,247.77 C710.63,251.21 712.00,254.42 712.00,254.91 C712.00,257.27 720.45,269.78 725.78,275.28 C740.69,290.70 755.52,298.57 775.07,301.41 C787.56,303.23 787.77,303.23 795.92,301.52 ZM 1908.00 271.51 C1909.93,270.21 1913.53,268.63 1916.00,267.99 C1921.64,266.54 1929.63,258.51 1933.68,250.22 C1936.22,245.01 1936.47,243.56 1936.39,234.00 C1936.29,221.90 1935.04,217.67 1929.20,209.77 C1920.00,197.32 1907.44,191.00 1891.90,191.00 C1883.45,191.00 1882.35,191.25 1874.56,194.97 C1864.50,199.77 1858.34,206.07 1853.25,216.72 C1849.95,223.64 1849.82,224.33 1850.20,233.22 C1850.53,241.18 1851.05,243.45 1853.82,249.16 C1860.15,262.17 1873.07,272.35 1885.50,274.11 C1894.07,275.33 1904.04,274.18 1908.00,271.51 ZM 80.66 462.75 C77.63,459.72 77.11,454.68 77.04,427.58 C76.99,404.04 77.29,402.85 83.74,401.06 C88.79,399.65 133.21,399.70 142.31,401.12 C150.71,402.43 162.10,407.49 166.79,412.01 C170.75,415.82 174.88,424.01 175.63,429.50 C176.03,432.51 175.39,435.52 173.02,441.68 C169.28,451.43 164.43,456.48 154.18,461.34 L 147.50 464.50 L 115.26 464.80 L 83.01 465.10 L 80.66 462.75 ZM 89.29 347.28 C81.58,346.94 80.95,346.75 79.04,344.06 C77.14,341.39 77.00,339.73 77.00,320.05 C77.00,295.23 77.35,293.90 84.40,292.13 C91.47,290.35 129.39,290.66 137.60,292.56 C146.33,294.58 148.47,295.76 154.59,301.88 C160.17,307.45 162.01,311.89 161.98,319.62 C161.93,329.34 154.81,338.88 143.80,343.97 C137.63,346.82 137.10,346.89 117.50,347.26 C106.50,347.47 93.81,347.48 89.29,347.28 ZM 568.00 509.92 C563.85,508.19 561.17,504.99 560.49,500.93 C559.59,495.58 560.47,493.56 565.25,490.05 C571.15,485.71 576.45,485.80 580.84,490.33 C583.51,493.09 584.08,494.48 584.16,498.44 C584.25,502.60 583.82,503.65 580.83,506.63 C577.07,510.40 572.15,511.66 568.00,509.92 ZM 560.49 275.25 C560.14,272.64 558.94,266.90 557.82,262.50 C556.70,258.10 554.75,248.65 553.49,241.50 C552.23,234.35 550.49,225.76 549.62,222.42 C548.74,219.07 547.59,211.64 547.04,205.92 C546.50,200.19 545.37,190.32 544.53,184.00 C542.48,168.39 542.60,154.85 544.90,143.16 C545.95,137.85 547.09,131.85 547.43,129.84 C547.78,127.82 549.62,123.18 551.53,119.51 C553.44,115.85 555.00,112.31 555.00,111.65 C555.00,110.27 561.79,103.00 563.08,103.00 C563.55,103.00 564.35,103.79 564.86,104.75 C565.76,106.44 565.39,276.05 564.48,278.75 C564.25,279.44 563.40,280.00 562.59,280.00 C561.59,280.00 560.92,278.47 560.49,275.25 ZM 539.81 263.79 C531.49,243.36 528.99,236.73 527.06,230.00 C525.88,225.88 524.27,221.15 523.48,219.50 C519.64,211.43 515.00,195.45 513.58,185.32 C511.53,170.79 511.53,151.05 513.58,141.70 C515.42,133.29 521.04,121.13 524.88,117.23 C526.37,115.73 528.83,112.84 530.37,110.80 C533.46,106.70 539.42,104.02 541.28,105.88 C542.08,106.68 541.92,107.95 540.69,110.52 C539.76,112.47 539.00,114.86 539.00,115.82 C539.00,116.79 538.09,119.35 536.99,121.52 C533.20,128.96 531.99,139.74 531.85,167.50 C531.71,194.18 532.93,206.80 536.44,215.21 C537.22,217.07 538.37,223.26 539.00,228.98 C539.63,234.69 541.18,242.55 542.45,246.44 C545.39,255.45 546.27,269.29 543.93,269.76 C542.83,269.98 541.60,268.20 539.81,263.79 ZM 577.56 264.25 C577.21,262.19 576.84,225.75 576.72,183.29 C576.51,110.60 576.60,105.97 578.27,104.30 C580.55,102.02 582.34,103.09 586.95,109.51 C589.25,112.70 591.15,117.18 592.63,122.90 C593.85,127.63 595.60,133.52 596.52,136.00 C597.90,139.69 598.20,144.37 598.20,162.04 C598.20,183.92 597.33,193.14 593.92,207.50 C592.87,211.90 592.01,217.08 592.01,219.02 C592.00,220.96 590.67,227.71 589.04,234.03 C587.41,240.35 585.60,249.73 585.02,254.87 C583.83,265.29 582.81,268.00 580.05,268.00 C578.66,268.00 578.02,267.03 577.56,264.25 ZM 597.55 263.09 C596.99,262.18 600.62,231.42 601.44,230.09 C602.60,228.23 607.00,203.38 607.00,198.74 C607.00,195.81 607.73,190.74 608.61,187.46 C610.89,179.05 610.96,150.85 608.72,142.50 C607.84,139.20 606.82,133.57 606.47,130.00 C605.80,123.33 603.65,116.02 601.32,112.53 C600.59,111.44 600.00,108.82 600.00,106.71 C600.00,103.42 600.29,102.91 602.00,103.18 C604.98,103.65 616.01,112.72 619.86,117.85 C621.71,120.31 624.03,124.62 625.01,127.41 C626.00,130.21 627.50,134.12 628.35,136.09 C631.96,144.48 632.21,176.79 628.72,183.60 C627.90,185.19 626.49,189.88 625.59,194.00 C624.68,198.12 623.24,203.52 622.37,206.00 C621.51,208.48 619.77,214.15 618.51,218.62 C617.25,223.08 615.54,227.81 614.72,229.12 C613.90,230.43 612.68,233.20 612.02,235.28 C611.36,237.36 609.79,240.96 608.52,243.28 C607.26,245.60 605.70,249.79 605.05,252.58 C603.23,260.51 599.33,265.96 597.55,263.09 ZM 779.50 266.69 C775.65,264.90 771.04,262.64 769.25,261.69 C764.13,258.95 754.56,249.00 751.39,243.13 C749.80,240.18 747.28,235.52 745.79,232.77 C743.27,228.10 743.07,226.83 742.87,214.13 C742.63,199.22 742.04,201.50 750.25,186.03 C755.81,175.54 760.47,169.65 767.59,164.11 C778.40,155.70 784.08,152.46 794.24,148.92 C807.23,144.38 814.66,144.02 825.21,147.39 C841.76,152.69 852.82,161.59 859.71,175.17 C869.17,193.82 870.19,202.41 864.50,215.50 C863.78,217.15 862.49,220.21 861.63,222.29 C860.77,224.37 857.88,228.65 855.20,231.79 C852.52,234.93 848.86,239.98 847.07,243.00 C842.23,251.16 832.47,260.74 826.07,263.61 C816.93,267.71 806.07,270.00 795.83,269.98 C787.41,269.96 785.82,269.65 779.50,266.69 Z" fill="rgb(254,254,253)"/>
</g>
</svg>