<?xml version="1.0" encoding="utf-8"?>
<!-- Generator: Adobe Illustrator 27.3.1, SVG Export Plug-In . SVG Version: 6.00 Build 0)  -->
<svg version="1.1" id="Layer_1" xmlns="http://www.w3.org/2000/svg" xmlns:xlink="http://www.w3.org/1999/xlink" x="0px" y="0px"
	 viewBox="0 0 1957 536" style="enable-background:new 0 0 1957 536;" xml:space="preserve">
<style type="text/css">
	.st0{fill:#6639A6;}
	.st1{fill:#C9B1B4;}
	.st2{fill:#E7AB39;}
</style>
<g>
	<path class="st0" d="M810.1,257.7c-8,5.4-21,0.9-34.8-12.1c-11.5-10.8-16.3-19.9-16.3-30.9c0-8.8,3-20.2,5.6-21.2
		c1.5-0.6,1.8-0.1,2.8,4.5c0.8,3.9,6.9,10.4,8.9,9.7c2.2-0.8,2.3-8.3,0.2-13.3c-0.8-1.9-1.8-5.7-2.1-8.3c-0.8-6,1-10.1,7-16l4.4-4.3
		l2.1,2.3c1.2,1.2,2.1,2.7,2.1,3.2c0,1.8,5.1,11.5,6.9,13.1c1.1,1,2.5,1.3,3.5,0.9c1.5-0.6,1.7-1.5,1.1-7.2
		c-0.4-3.6-1.2-8.4-1.8-10.8c-0.9-3.4-0.9-4.6,0.2-5.9c5.2-6.2,23.4-5.9,36.1,0.5c2.4,1.2,7.1,4.9,10.5,8.2c13.8,13.2,18,32.7,10,46
		c-1.7,2.8-3.6,5.3-4.2,5.5c-0.6,0.2-3.5-1.5-6.5-3.7c-4.4-3.2-6.2-4-9-3.8c-5.7,0.5-5.3,4,1.5,11.5c4.6,5.1,5.5,6.8,5.5,9.9
		c0,3.1-0.8,4.5-4.8,8.6c-5.8,5.8-6.9,5.7-16-1.3c-3.5-2.7-7.3-4.8-8.5-4.8c-4.5,0-6.2,4.6-3,8.1c0.9,1,1.7,3.5,1.8,5.5
		C813.5,254.8,813,255.7,810.1,257.7z M1327.7,524.8c-11.6,2.6-27.8,2.7-37.7,0.4c-16.8-4-31.2-12.3-38.6-22.3
		c-2-2.8-4.1-4.9-4.6-4.7c-0.5,0.2-2.6,3.7-4.6,7.8c-4.3,8.7-9.2,13-17.6,15.4c-9.7,2.8-20.2,1.5-28.3-3.5c-5-3.1-7.2-5.6-10.2-11.9
		l-2.7-5.5v-251l2.2-4.7c2.7-5.7,7.9-11,13.6-14c3.6-1.9,5.8-2.2,15.2-2.2c10,0,11.4,0.2,16,2.6c5.8,3.1,10.1,7.5,13.4,13.7
		c2.2,4,2.4,6.1,3.2,26c0.5,11.9,0.9,30.3,0.9,40.9c0.1,22.9,0.4,23.6,7.9,15.5c9.8-10.6,20.4-16.3,36.3-19.4
		c11-2.1,26.2-2.5,33.5-0.8c21.6,5,39.1,14.5,51.9,28.2c7.5,8.1,11.6,14.2,18.4,27.9c0.5,0.9,1.7,4.3,2.8,7.5
		c6.4,19.2,9.1,41.6,7.2,58.3c-4.1,35.8-20.8,65.4-46.6,82.5C1349.3,518.2,1340,522.1,1327.7,524.8z M488.7,524.8l-4.2,2.7l-99,0.1
		c-54.5,0.1-100.4-0.2-102.1-0.6c-4.8-1.1-8.7-3.8-11.9-8.3l-3-4.2v-142l3.7-4.6c2-2.5,7.5-7.2,12-10.4c4.6-3.2,14.4-10.5,21.8-16.1
		c14.7-11.1,49.2-36.9,52.6-39.3c1.2-0.8,5.6-4.1,9.8-7.3c11.7-8.8,13.9-9.3,22.6-4.9c6.4,3.2,26.8,17.8,32.1,22.9
		c2.5,2.4,4.4,3.4,6,3.1c2.3-0.3,2.4-0.5,2.4-11c0-8.2,0.4-11.1,1.5-12.2c2.1-2.1,19.4-3.3,24.3-1.6c6.6,2.2,6.7,2.7,6.7,29.6
		c0,17.8,0.3,24.5,1.2,25.6c0.7,0.8,4.9,4.2,9.2,7.4c11.6,8.5,19.2,15.3,21.8,19.4l2.2,3.6L498.2,515l-2.7,3.5
		C494,520.5,491,523.3,488.7,524.8z M1548,524.5c-16.6,3.5-31.2,2.5-48.8-3.3c-22-7.3-41.9-25.3-53.1-47.9
		c-9.2-18.7-13.1-36.1-13.1-58.5c0-24.4,5.6-45.8,16.3-62.5c1.5-2.3,2.7-4.5,2.7-4.9c0-0.9,7.6-10,12-14.5
		c10.6-10.7,29.3-21.9,41.5-24.6c33.3-7.5,64.8,0.6,80.1,20.7c2.6,3.4,4.5,5,6.1,5c2,0,2.3-0.7,2.9-5.1c1.1-8.3,8.6-16.5,17.3-18.9
		c5.6-1.6,17-1.2,22.1,0.7c8.8,3.3,14.7,8.7,17.8,16.5c1.6,4,1.8,11.5,2,89l0.3,84.7l-3,6c-6,11.8-13.2,16.1-27.3,16.1
		c-8.9,0-16.6-2.1-21.5-5.8c-3.1-2.3-9.2-13.3-9.2-16.5c0-0.8-0.7-2.1-1.6-2.8c-1.4-1.1-1.9-0.9-3.7,1.6
		C1580,510.7,1563.1,521.3,1548,524.5z M892.5,525.5c-8.8,1.3-25,1.9-29.5,1c-0.8-0.2-5.1-0.8-9.5-1.5
		c-24.9-3.6-46.7-14.1-62.5-29.9c-9.4-9.4-10.7-11.1-15.9-19.9c-5.2-8.7-9.1-18.2-12.1-29.2c-2-7.5-2.3-10.8-2.3-28.9
		c0-18.3,0.2-21.4,2.2-28.5c5.9-20.8,12.2-32.7,25-47.4c4.8-5.5,20.8-19.1,22.4-19.1c0.3,0,2.6-1.4,5-3s4.8-3,5.2-3s2.6-0.9,4.9-1.9
		c14.8-6.8,23.7-8.6,43.6-8.6c21.9,0,32.8,2.4,49.5,10.7c10.6,5.3,19.6,12.1,28.6,21.5c17.2,18,27.2,40.5,28.6,64.4
		c1,15.5-5.2,28.6-15.5,33c-4.2,1.8-7.9,1.9-70.2,1.9c-36.2,0-66.5,0.3-67.4,0.6c-2.3,0.9-2,2.5,1.7,9.4c8.2,15.6,29.2,27,49.9,27
		c5.9,0,22.1-2.8,23.3-4c0.5-0.5,1.6-1,2.3-1c0.8,0,6-2.2,11.7-5c13.2-6.3,18.1-8,23.4-8c12.4,0,22.6,7,25.8,17.6
		c1.6,5.5,1.6,6.2,0,12.3C955.6,505.3,931.1,519.5,892.5,525.5z M301.3,493.8c1.1,1.8,162.7,1.8,164.5,0s1.7-105.8,0-107.9
		c-1.8-2.2-18.4-14.9-63-48.3c-8.7-6.5-16-12.2-16.3-12.7c-1.2-1.9-3.8-0.7-12.4,5.9c-4.9,3.7-10.9,8.2-13.3,10s-5.5,4.2-6.8,5.4
		c-1.3,1.2-3.5,2.9-4.9,3.8s-9.9,7.3-19,14.2c-9.1,6.9-17.7,13.3-19.2,14.2c-1.5,0.9-4.6,3.5-6.8,5.7L300,388l0.3,52.3
		C300.4,469,300.9,493.1,301.3,493.8z M1743.4,521.9c-6,2-14.8,2.6-19.9,1.5c-10.2-2.3-17-6.6-20.2-12.7c-4.2-8.1-4.3-9.6-4.3-94.4
		c0-3.6,0-7.1,0-10.4c0-68.5,0-78.2,4.7-84.3c1-1.3,2.2-2.4,3.7-4c6.1-6.1,12.4-8.6,22.1-8.6c15.5,0,26,8.2,29.5,23
		c1.3,5.6,2.5,8,4,8c0.4,0,2-2.1,3.5-4.8c4.5-7.8,14.9-17.3,23.8-21.6c14.4-7,33.8-8.2,44.6-2.6c8.3,4.2,14.4,15,14.5,25.5
		c0,11.7-6.7,23.5-16.3,28.6c-5.3,2.8-5.7,2.9-21.7,2.9h-0.1c-9.7,0-13.9,0-17.8,1c-2.9,0.8-5.6,2.1-10.4,4.4
		c-5.1,2.4-13.8,11.4-17.2,17.7l-2.4,4.4L1763,449c-0.5,51.9-0.6,53.6-2.7,58C1757,514.1,1751,519.4,1743.4,521.9z M1054,521.2
		c-11.4,4.1-28.5,2.1-36.2-4.2c-6.6-5.4-8-10.2-8.9-29.9c-1.2-25.8-1-145.2,0.3-153.6c0.6-3.9,2.1-8.9,3.4-11.2
		c8.7-15.1,34.6-18,47.4-5.2c4.5,4.5,9,13.5,9,18c0,1.1,0.8,2.2,1.7,2.6c1.7,0.7,3.1-0.7,8.8-8.7c3.1-4.3,12.4-12.1,18.2-15.2
		c19-10.2,46-8.2,55.2,4.2c3.2,4.4,6.2,13.4,6.2,19.1c0,9.7-6.4,21.1-15.2,26.9l-5.2,3.5l-16.5,0.2c-17.3,0.2-20.9,0.9-30.6,6
		c-4.7,2.5-13.6,11.8-16.4,17.2c-3.8,7.4-4.1,13.6-3.4,61.1c0.6,42.4,0.6,45.9-1.1,51C1067.1,513.2,1062.7,518.1,1054,521.2z
		 M719.9,521.9c-3.3,1.5-6.5,2-12.4,2c-13.2-0.1-17.4-2.9-36.5-24.4c-5.3-6-19.4-21.4-31.1-34c-24.4-26.2-28.4-30-28.9-34.3
		c-0.1-0.8-0.1-1.7,0-2.7c0-0.7,0.1-1.4,0.1-2.3c0-4.3-0.5-12.5-1-18.4c-0.6-5.8-0.7-11.5-0.2-12.6c0.4-1.1,3.9-5.3,7.8-9.4
		c3.8-4.1,9.6-10.5,12.9-14.4c3.2-3.8,7.7-9,10-11.5s9-9.9,15-16.5c17.7-19.5,27.6-29.5,32-32.3c3.7-2.4,5-2.6,13.6-2.7
		c8.6,0,10,0.2,14.2,2.7c9.1,5.4,14.7,14.7,15.5,26.2c0,0.4,0.1,0.9,0.1,1.3c0.1,1.9,0.3,3.4,0.1,4.9c-0.7,7.4-7.7,14.2-48.7,55.6
		c-6.7,6.8-12.2,13-12.2,13.7s1.9,3.1,4.3,5.4c2.4,2.3,16,15.3,30.4,29s27.4,26.7,29,29c4,5.6,5.2,9.8,5.2,17.4
		C739,505.7,731.6,516.7,719.9,521.9z M1919.1,522.3c-5.5,1.7-15.3,2-20.6,0.7c-13.9-3.5-19.9-10.7-21.6-26
		c-0.6-5.1-0.8-41.7-0.7-88.6l0.3-79.9l2.3-4.8c4.9-9.9,14.4-14.7,28.9-14.7c8.2,0,9.9,0.3,15.7,3.1c7.1,3.4,12.3,8.6,14.6,14.7
		c1.1,3.1,1.4,19.3,1.7,88.8l0.3,85l-2.5,5.5C1933.5,514.8,1928.3,519.5,1919.1,522.3z M1280,466.2c9.7,3.6,27,2,37.6-3.5
		c4.4-2.3,12-9.3,15.1-14c14.3-21.5,11.8-52.9-5.6-70.6c-18.1-18.3-48.1-18.6-65.7-0.6c-6.9,7.1-11.6,17-13.8,29
		c-1.5,8.3-1.5,9.8-0.1,18.5c0.9,5.2,2.2,10.9,3,12.6s1.4,3.4,1.4,3.7c0,0.3,1.8,3.2,4,6.5C1261.7,456.5,1269.1,462.1,1280,466.2z
		 M1534,468.1c1.9,0.4,7.7,0.6,12.8,0.4c8.4-0.3,10.1-0.8,17.7-4.4c13.6-6.6,21.7-17.4,25.1-33.4c4.1-19.7-0.5-40.5-11.8-53.3
		c-4.8-5.5-9.1-8.3-17.4-11.4c-5.5-2-7.6-2.2-17.5-1.9c-10.4,0.4-11.8,0.7-18.1,3.8c-4.6,2.3-8.6,5.4-12.5,9.5
		c-10.5,11.3-14.2,21.2-14.2,38.6c0,13.3,2,21.4,7.7,31.1C1511.2,456.6,1523.7,465.9,1534,468.1z M954.8,181.9
		c-1.7,0.6-3.3,1-3.7,0.9c-0.3-0.1-1.7-0.3-3-0.6c-2.6-0.5-6.3-4.1-23.1-22.3c-5.8-6.3-16.3-17.7-23.5-25.4s-15-16.3-17.4-19.1
		c-6.6-7.4-28.9-31.2-34.2-36.4c-2.5-2.5-5.4-6.2-6.4-8.3c-1.6-3.5-1.7-4-0.2-7.1c1.5-3.2,5.5-6.3,12.1-9.7l3-1.5L858,41.2
		c-0.5-15.6,1.5-22.7,8.4-29.9l5-5.2h6.5c5.6,0,7,0.4,10.3,3c6.1,4.6,7.9,8.4,7.9,16.5c0,5.4-0.6,8.3-2.5,12.6
		c-2.5,5.5-12,18.2-17.1,22.9c-1.5,1.3-2.6,2.7-2.6,3.1c0,1.3,6.1,8.3,20.3,23.3c7.9,8.3,19.5,20.8,25.8,27.6
		c6.3,6.9,16.7,18,23.1,24.7c6.4,6.7,13.5,14.5,15.8,17.4c3.7,4.6,4.1,5.7,4.1,10.8C963,174.5,959.6,180.2,954.8,181.9z
		 M360.5,437.4c-2.6,1.4-5.3,2.5-5.9,2.5c-2.7-0.1-9.4-4-11.9-6.9c-4.6-5.5-3.2-14.4,3.2-20.5c1.7-1.6,3.1-3.4,3.1-3.9
		c0-1.5,4.3-9.7,5.1-9.7c0.4,0,2.9-1.8,5.5-4c2.7-2.2,5.9-4,7.1-4c6.2,0,12.2-5.4,12.2-10.8c0-6.1,8.7-4.6,15.8,2.8
		c2.4,2.5,6.3,6.5,8.6,9c2.4,2.5,5.8,7.7,7.7,11.6c2.2,4.8,4.5,7.8,6.6,9.2c5.9,3.9,9.4,15,6,19.4c-1.6,2.2-12.6,7.7-15.4,7.7
		c-2.6,0-9-2.6-9.9-4s-4.2-1.3-7.4,0.4c-8.3,4.3-14.6,4.6-21.1,1.1l-4.7-2.6L360.5,437.4z M822.1,394.2c0.9,1.7,3.5,1.8,45.8,1.8
		c2.1,0,4.1,0,6.1,0c32.2,0,39.6,0,40.7-2.7c0.3-0.8,0.1-1.8-0.1-3.2c0-0.3-0.1-0.6-0.2-0.8c-1.9-10.7-11.4-22-23.1-27.9l-7.8-3.9
		h-27l-7.5,3.8c-4.1,2.1-9.1,5.2-11,7C829,376.4,820.3,390.8,822.1,394.2z M409.2,478c-2.3,1.8-4.2,2-26.2,2
		c-17.4,0-24.1-0.3-25.4-1.2c-1.8-1.3-8.7-19.6-8.7-23.2c0-1.1-0.9-3.2-2-4.6s-2-3.3-2-4.2c0-2.2,3.2-2.3,5-0.2
		c0.8,0.9,2.9,1.5,5.5,1.5s4.8-0.6,5.5-1.5c2-2.5,6.1-1.8,9.6,1.6l3.2,3.1l11-5.7l4.1,2.3l4.1,2.3l2.5-2.3c2.3-2.1,2.7-2.2,5.7-1
		c6.2,2.6,9.4,2.5,12.8-0.3c3.1-2.6,6.9-3.5,6.9-1.5c0,0.6-1.3,5-2.9,9.8s-3.7,11.5-4.6,15C412.3,473.9,410.9,476.8,409.2,478z
		 M867.9,51.8c0,0.1,1.1,0.2,2.5,0.2c3.2,0,11.1-8.8,14.2-15.8c3.2-7.2,3-10.7-0.6-14.3c-8.7-8.7-18,3.5-16.7,21.9
		C867.6,48,867.9,51.6,867.9,51.8z"/>
	<path class="st1" d="M1331,526.2c-4.9,1.3-11.7,2.1-19.5,2.3c-13.3,0.4-15.4,0.2-24-2.1c-15.6-4.2-24.9-9.4-34.1-19
		c-3.3-3.5-6.3-6.4-6.6-6.4c-0.3,0-1.5,2.1-2.6,4.8c-8,18.6-29.8,24.6-48.9,13.6c-4.8-2.8-8.1-6.8-11.3-13.8l-2.3-5l0.1-252l2.7-5
		c3.8-6.9,8.1-11.2,14.6-14.3c4.8-2.3,6.8-2.7,15.5-2.7c8.6,0,10.7,0.3,15,2.4c5.8,2.9,11.7,7.9,14.5,12.6c4.7,7.5,5,11,5.6,50.5
		c0.3,20.6,0.8,37.7,1,37.9c0.2,0.2,1.8-1.2,3.5-3.2c7.3-8.8,21-16.8,34.9-20.2c11.2-2.8,32.9-2.6,43,0.3
		c19.4,5.6,32.5,13,45.2,25.7c10.4,10.4,23.2,32.7,25.3,44.2c0.4,2.1,1.1,4.7,1.6,5.6c1.5,2.9,4.8,27.2,4.8,35.2
		c0,10-3.2,28.1-6.9,39c-9.5,28-26.8,49.1-50.7,62.1C1345.3,521.8,1340.6,523.6,1331,526.2z M488.5,526.8c-3.9,2-5.5,2-99,2.3
		c-52.2,0.2-98.5,0-102.7-0.3c-8.4-0.7-11.6-2.3-16-8.1c-4.6-6-4.8-9.6-4.8-79.6c0-61.6,0.1-66,1.9-69.8c1.9-4.2,8.9-10.9,17.6-17
		c7.9-5.5,7.6-5.3,56.8-42.5c26.6-20.1,36.7-26.9,40-26.9c6.1,0,28.5,14.1,40.9,25.8c5.5,5.2,7,4.1,6.2-5.1
		c-0.7-8.5,0.7-14.1,4-15.9c1.2-0.6,6.7-1.4,12.2-1.6c8.8-0.4,10.6-0.2,14.1,1.6c2.8,1.4,4.4,3.1,5.2,5.3c0.7,2,1.1,12,1.1,26.4
		v23.2l9.9,7.6c13.7,10.5,21.1,17.5,23,21.6c1.4,3.1,1.6,11.5,1.9,68c0.2,46.5,0,66.1-0.9,70.1C498.6,518.6,494.7,523.7,488.5,526.8
		z M1327.7,524.8c12.3-2.7,21.6-6.6,31.8-13.4c25.8-17.1,42.5-46.7,46.6-82.5c1.9-16.8-0.8-39.1-7.2-58.3c-1.1-3.2-2.3-6.6-2.8-7.5
		c-6.8-13.7-10.9-19.8-18.4-27.9c-12.8-13.7-30.3-23.2-51.9-28.2c-7.3-1.7-22.6-1.3-33.5,0.8c-15.9,3.1-26.6,8.8-36.3,19.4
		c-7.5,8.1-7.9,7.4-7.9-15.5c0-10.6-0.4-29-0.9-40.9c-0.8-19.9-1-22-3.2-26c-3.3-6.2-7.7-10.6-13.4-13.7c-4.6-2.4-6-2.6-16-2.6
		c-9.4,0-11.6,0.4-15.2,2.2c-5.7,3-10.8,8.3-13.6,14l-2.2,4.7v251l2.7,5.5c3,6.3,5.2,8.8,10.2,11.9c8.1,5,18.6,6.3,28.3,3.5
		c8.3-2.4,13.3-6.8,17.6-15.4c2-4.1,4.1-7.6,4.6-7.8c0.5-0.2,2.6,1.9,4.6,4.7c7.4,10.1,21.8,18.4,38.6,22.3
		C1299.9,527.6,1316.1,527.4,1327.7,524.8z M488.7,524.8c2.3-1.5,5.4-4.3,6.9-6.2l2.7-3.5l0.3-138.5l-2.2-3.6
		c-2.5-4.1-10.1-10.9-21.8-19.4c-4.4-3.2-8.6-6.6-9.2-7.4c-0.9-1.1-1.2-7.8-1.2-25.6c0-26.9-0.1-27.4-6.7-29.6
		c-5-1.6-22.2-0.5-24.3,1.6c-1.1,1.1-1.5,4-1.5,12.2c0,10.5,0,10.7-2.4,11c-1.6,0.2-3.5-0.8-6-3.1c-5.3-5.1-25.8-19.6-32.1-22.9
		c-8.7-4.4-10.9-3.9-22.6,4.9c-4.2,3.2-8.6,6.5-9.8,7.3c-3.4,2.4-38,28.3-52.6,39.3c-7.4,5.6-17.2,12.9-21.8,16.1
		c-4.5,3.2-10,8-12,10.4l-3.7,4.6v142l3,4.2c3.3,4.5,7.1,7.3,11.9,8.3c1.7,0.4,47.6,0.6,102.1,0.6l99-0.1L488.7,524.8z M1549.6,526
		c-7.5,1.9-20,2.9-27.6,2.3c-5.4-0.4-15.4-2.7-23.2-5.3c-11.6-3.9-29.1-15.1-37-23.7c-3.9-4.3-13.9-17.9-13.9-19
		c0-0.4-0.6-1.4-1.3-2.2c-3-3.6-9.6-21.5-13.3-36.1c-2.8-11.2-2.6-43,0.3-55c5.2-20.9,12.4-35.6,24.5-49.9
		c5.3-6.3,8.1-8.8,15.3-14.4c0.6-0.4,2.8-2.2,5-3.9c5.9-4.5,17.7-9.9,27.9-12.5c7.4-1.9,11.4-2.3,22.5-2.3c7.5,0,15.4,0.4,17.6,0.9
		c16.6,3.6,25.6,8.3,36.1,18.7c8.9,8.8,9.6,8.9,10.9,2.1c1-5.5,6.7-12.3,12.8-15.5c4.7-2.4,6.3-2.7,15.7-2.7
		c9.4,0,11.1,0.3,15.6,2.6c7.6,3.9,10.6,6.9,14.3,13.9l3.3,6.3l0.2,172l-2.7,5.1c-4,7.5-7,10.7-13.7,14.2c-5.4,2.9-6.7,3.2-15,3.2
		c-16.6,0-26.2-5.9-31.1-19.1c-1.2-3.3-2.5-5.9-2.9-5.9c-0.3,0-2.2,1.9-4,4.2C1578.5,513.7,1564.1,522.3,1549.6,526z M1548,524.5
		c15.1-3.2,32-13.8,39.7-25c1.8-2.6,2.3-2.8,3.7-1.6c0.9,0.7,1.6,2,1.6,2.8c0,3.2,6.1,14.1,9.2,16.5c5,3.7,12.6,5.8,21.5,5.8
		c14.1,0,21.3-4.3,27.3-16.1l3-6l-0.3-84.7c-0.3-77.5-0.4-85.1-2-89c-3.1-7.8-9-13.2-17.8-16.5c-5.1-1.9-16.5-2.2-22.1-0.7
		c-8.7,2.4-16.2,10.6-17.3,18.9c-0.6,4.4-1,5.1-2.9,5.1c-1.5,0-3.5-1.6-6.1-5c-15.3-20.1-46.8-28.2-80.1-20.7
		c-12.2,2.8-30.9,13.9-41.5,24.6c-4.4,4.5-12,13.6-12,14.5c0,0.4-1.2,2.5-2.7,4.9c-10.7,16.7-16.3,38.2-16.3,62.5
		c0,22.4,3.9,39.9,13.1,58.5c11.1,22.5,31.1,40.5,53.1,47.9C1516.8,527,1531.4,528,1548,524.5z M886.5,528
		c-23.9,2.5-51.2-2.5-71.2-13.2C778.5,495.3,758,460.2,758,417c0-9.4,2.4-29.1,3.9-31.8c0.6-1.1,1.1-2.8,1.1-3.8
		c0-3.1,9.3-22.1,14.9-30.4c7.3-10.8,22.2-24.8,33.1-31.1c13-7.5,15.1-8.5,26-12c11.5-3.8,26.6-5.2,43.2-3.9
		c14.5,1.1,24.6,3.8,37.2,10c12.9,6.3,13.1,6.5,24.6,16.2c5.9,5,17.5,18.6,19.4,22.8c0.4,0.8,1.6,2.9,2.7,4.5c1.1,1.6,2.4,4.1,3,5.5
		s1.7,3.9,2.4,5.5c8.3,18.1,10.8,41.6,5.4,52.8c-4.1,8.7-5.1,10-10.7,13.6l-5.7,3.7l-67,0.3c-36.9,0.2-67.3,0.6-67.8,1.1
		c-1.8,1.8,3.7,10.8,10.8,17.6c4.9,4.7,8.1,6.7,17.8,10.9c5.4,2.4,19.9,3.7,30.3,2.7c10.1-1,17.3-3.2,29-9c4.5-2.2,10.7-5,13.8-6.1
		c14.3-5.3,31.1,1.9,36.4,15.6c2.6,6.8,2.7,9.6,0.5,16c-2.5,7.2-6.8,12.9-14.2,18.9C933.7,517.9,912.8,525.2,886.5,528z
		 M892.5,525.5c38.7-5.9,63.1-20.1,68.2-39.5c1.6-6.1,1.6-6.8,0-12.3c-3.1-10.7-13.3-17.7-25.8-17.6c-5.4,0-10.3,1.7-23.4,8
		c-5.7,2.7-10.9,5-11.7,5c-0.7,0-1.8,0.4-2.3,1c-1.2,1.2-17.4,4-23.3,4c-20.6,0-41.7-11.4-49.9-27c-3.7-7-3.9-8.6-1.7-9.4
		c0.9-0.3,31.2-0.6,67.4-0.6c62.3,0,66.1-0.1,70.2-1.9c10.3-4.4,16.4-17.5,15.5-33c-1.5-23.9-11.4-46.3-28.6-64.4
		c-9-9.5-18-16.2-28.6-21.5c-16.7-8.3-27.6-10.7-49.5-10.7c-19.9,0-28.8,1.7-43.6,8.6c-2.3,1-4.4,1.9-4.9,1.9c-0.4,0-2.8,1.4-5.2,3
		s-4.7,3-5,3c-1.6,0-17.7,13.6-22.4,19.1c-12.8,14.7-19.1,26.6-25,47.4c-2,7.1-2.3,10.2-2.2,28.5c0,18.1,0.3,21.5,2.3,28.9
		c3,11.1,6.9,20.5,12.1,29.2c5.2,8.8,6.6,10.5,15.9,19.9c15.8,15.9,37.6,26.3,62.5,29.9c4.4,0.6,8.7,1.3,9.5,1.5
		C867.4,527.4,883.7,526.8,892.5,525.5z M301.3,493.8c-0.5-0.7-1-24.8-1.1-53.6l-0.3-52.3l4.1-3.9c2.3-2.2,5.4-4.7,6.8-5.7
		c1.5-0.9,10.1-7.3,19.2-14.2c9.1-6.9,17.6-13.3,19-14.2c1.4-0.9,3.6-2.6,4.9-3.8c1.3-1.2,4.4-3.6,6.8-5.4s8.4-6.3,13.3-10
		c8.6-6.5,11.2-7.8,12.4-5.9c0.3,0.5,7.6,6.2,16.3,12.7c44.6,33.3,61.2,46.1,63,48.3c1.8,2.2,1.8,106.2,0,107.9
		C464,495.6,302.5,495.5,301.3,493.8z M302.5,492.2c0.4,1.1,14.8,1.3,80.2,1.3c43.9,0,80.3-0.4,81-0.8c1-0.6,1.2-12.4,1.2-53.5
		v-52.7l-7.2-5.5c-11.6-8.9-39.1-29.6-55.5-41.8c-8.4-6.2-15.5-11.7-15.8-12.2c-1.3-2-4.1-0.5-16.7,9.2
		c-7.3,5.6-25.5,19.3-40.5,30.5L302,387.1V439C302,467.5,302.2,491.4,302.5,492.2z M1748.2,521.8c-5.7,3-6.4,3.2-17.3,3.1
		c-10.4,0-11.9-0.3-17.1-2.9c-7.7-3.7-9.2-5.3-13-13l-3.2-6.6v-172l2.9-6c3.4-6.9,7-10.6,14.1-14.3c4.4-2.3,6.2-2.6,14.5-2.7
		c8.3,0,10.2,0.3,15.2,2.6c8.8,4.2,14.8,12.4,16.7,22.8c0.4,2,1.2,3.5,2,3.5s2.2-1.6,3.2-3.5c2.1-3.9,9.1-11.6,14.1-15.3
		c9.1-6.9,26.1-12.7,37.5-12.7c9.6,0,22.4,5.6,26.9,11.7c11.8,16,6.9,39.6-10.4,49.9c-4.7,2.8-4.9,2.8-19.2,2.6
		c-15.2-0.3-20.6,0.6-29.8,4.9c-6.2,2.9-14.6,11.6-17.6,18.1l-2.6,5.6V449c0,50.3-0.1,51.5-2.1,56.3
		C1759.7,512.9,1754.8,518.3,1748.2,521.8z M1053.4,523.5c-3.9,2-22.8,2-26.4,0c-1.4-0.8-3.3-1.5-4.3-1.5s-4.2-2.4-7.1-5.3
		c-1.7-1.7-3.2-3-4.3-4.4c-4.8-6.1-4.8-16-4.8-82.6c0-4.2,0-8.5,0-13.1c0-78.9,0.1-83.3,1.9-89c2.3-7.1,8.8-14.2,16-17.4
		c7.2-3.2,21.3-3,28.8,0.3c8.4,3.7,15.1,12.4,16.7,21.5c0.3,1.9,1.1,3.6,1.7,3.8c0.6,0.2,2.6-1.9,4.4-4.7c4.4-6.8,14-15.1,22.6-19.4
		c16-8,36.7-8.5,48.3-1.2c4.2,2.6,10.1,9.5,10.1,11.7c0,0.8,0.7,2.4,1.6,3.6c1.1,1.6,1.6,4.7,1.6,10.7c0.1,7.4-0.3,9.2-2.8,14
		c-3.7,7.4-8.4,12.7-14.2,16.1c-4.7,2.8-5,2.9-18.3,2.6c-20.9-0.3-31.2,2.8-40.6,12.2c-2.8,2.8-6.4,7.5-8,10.6l-2.9,5.5V450
		c0,52.2,0,52.5-2.2,57.3c-2.3,5-11.4,14.7-13.7,14.7C1056.8,522,1054.9,522.7,1053.4,523.5z M1743.4,521.9
		c7.5-2.5,13.6-7.8,16.9-14.9c2.1-4.4,2.2-6.1,2.7-58l0.5-53.5l2.4-4.4c3.4-6.3,12.2-15.3,17.2-17.7c4.8-2.3,7.5-3.6,10.4-4.4
		c3.9-1,8-1,17.8-1h0.1c16,0,16.4,0,21.7-2.9c9.6-5.1,16.3-16.9,16.3-28.6c0-10.5-6.2-21.3-14.5-25.5c-10.8-5.5-30.2-4.4-44.6,2.6
		c-8.9,4.3-19.3,13.8-23.8,21.6c-1.5,2.6-3.1,4.8-3.5,4.8c-1.4,0-2.6-2.4-4-8c-3.5-14.8-14-23-29.5-23c-9.8,0-16,2.4-22.1,8.6
		c-1.5,1.5-2.7,2.6-3.7,4c-4.7,6.1-4.7,15.8-4.7,84.3l0,0c0,3.3,0,6.8,0,10.4c0,84.8,0.1,86.2,4.3,94.4c3.2,6.1,10,10.4,20.2,12.7
		C1728.7,524.5,1737.4,523.8,1743.4,521.9z M1054,521.2c8.7-3.1,13.1-8,16.5-18.2c1.7-5.1,1.8-8.6,1.1-51
		c-0.7-47.5-0.4-53.7,3.4-61.1c2.7-5.3,11.6-14.7,16.4-17.2c9.7-5.1,13.3-5.8,30.6-6l16.5-0.2l5.2-3.5c8.8-5.8,15.2-17.2,15.2-26.9
		c0-5.7-2.9-14.7-6.2-19.1c-9.2-12.4-36.1-14.5-55.2-4.2c-5.8,3.1-15.1,10.9-18.2,15.2c-5.7,8-7.1,9.4-8.8,8.7
		c-0.9-0.4-1.7-1.5-1.7-2.6c0-4.5-4.5-13.5-9-18c-12.8-12.7-38.7-9.9-47.4,5.2c-1.3,2.3-2.9,7.3-3.4,11.2
		c-1.2,8.4-1.5,127.8-0.3,153.6c0.9,19.7,2.3,24.5,8.9,29.9C1025.5,523.3,1042.6,525.3,1054,521.2z M721.9,523.1
		c-3.2,1.6-6.5,2.3-12.8,2.5c-10,0.4-10.6,0.2-17.6-3.9c-5-3-12.6-10.6-28.9-29.2c-3.8-4.4-10.6-11.8-15-16.5
		c-21.3-22.8-32.5-34.8-35.1-37.9c-2.8-3.3-2.9-3.9-3.6-17.5c-0.4-7.8-0.7-16.9-0.8-20.4l-0.1-6.3l6.3-6.7
		c3.5-3.7,10.8-11.8,16.2-18.1c5.4-6.3,12.8-14.6,16.4-18.5c3.6-3.9,10.2-11,14.5-16c12.5-14.1,21.8-23,27.1-25.6
		c4-2,6.4-2.4,13.4-2.4c7.5,0,9,0.4,13.3,2.9c9.6,5.7,15,13.5,16.9,24.4c1.3,7.5,0.6,13.3-2.4,18.1c-1.2,1.9-14.7,16.3-30,31.8
		s-27.8,28.6-27.8,29.1c0,0.9,4.2,5,40.6,40c19.2,18.4,22.5,22.1,25.2,27.7c2.6,5.3,3.2,7.7,3.2,13.1
		C741,505.4,733.3,517.2,721.9,523.1z M719.9,521.9c11.7-5.3,19.1-16.2,19.1-28.2c0-7.6-1.2-11.8-5.2-17.4c-1.6-2.3-14.7-15.3-29-29
		c-14.4-13.7-28.1-26.7-30.4-29c-2.4-2.3-4.3-4.7-4.3-5.4s5.5-6.9,12.2-13.7c41-41.5,48-48.2,48.7-55.6c0.1-1.5,0-3.1-0.1-4.9
		c0-0.4-0.1-0.8-0.1-1.3c-0.9-11.5-6.4-20.9-15.5-26.2c-4.2-2.5-5.6-2.8-14.2-2.7c-8.5,0-9.9,0.3-13.6,2.7
		c-4.4,2.8-14.3,12.9-32,32.3c-6,6.6-12.8,14-15,16.5c-2.3,2.5-6.8,7.6-10,11.5c-3.2,3.8-9,10.3-12.9,14.4c-3.8,4-7.3,8.3-7.8,9.4
		c-0.4,1.1-0.3,6.8,0.2,12.6c0.5,5.9,1,14.1,1,18.4c0,0.9,0,1.6-0.1,2.2l0,0c0,1-0.1,1.9,0,2.7c0.5,4.2,4.5,8,28.9,34.3
		c11.8,12.7,25.8,28,31.1,34c19.1,21.6,23.3,24.4,36.5,24.4C713.4,524,716.7,523.4,719.9,521.9z M1924.5,521.9
		c-6,2.9-7.3,3.1-17.2,3c-9.8,0-11.3-0.3-16.9-3c-4.8-2.3-6.9-4.1-9.7-8.2c-1-1.4-1.8-2.6-2.5-3.9c-4.2-7.4-4.2-17.1-4.2-91.1v-4.4
		c0-77.9,0.1-82.2,1.9-87.4c2.4-6.9,7.4-12.7,14.2-16.5c5.1-2.8,6-3,17-3c10.7,0,12,0.2,17.1,2.8c6.8,3.5,11.3,7.7,14.3,13.7
		l2.3,4.5l0.4,87.1c0.4,85.3,0.3,87.2-1.6,91C1935.6,514.3,1931.2,518.7,1924.5,521.9z M1919.1,522.3c9.1-2.8,14.4-7.5,18.4-16.3
		l2.5-5.5l-0.3-85c-0.3-69.5-0.6-85.7-1.7-88.8c-2.2-6-7.5-11.3-14.6-14.7c-5.8-2.7-7.5-3.1-15.7-3.1c-14.5,0-24.1,4.9-28.9,14.7
		l-2.3,4.8l-0.3,79.9c-0.2,46.9,0.1,83.5,0.7,88.6c1.7,15.3,7.7,22.6,21.6,26C1903.8,524.4,1913.6,524,1919.1,522.3z M1280,466.2
		c-10.9-4-18.3-9.7-24-18.3c-2.2-3.3-4-6.2-4-6.5s-0.6-1.9-1.4-3.7c-0.8-1.7-2.1-7.4-3-12.6c-1.5-8.7-1.4-10.2,0.1-18.5
		c2.2-12,6.9-21.9,13.8-29c17.6-18,47.6-17.7,65.7,0.6c17.4,17.7,19.9,49.1,5.6,70.6c-3.1,4.7-10.7,11.7-15.1,14
		C1307,468.2,1289.7,469.8,1280,466.2z M1534,468.1c-10.3-2.3-22.8-11.5-28.3-21c-5.7-9.7-7.7-17.8-7.7-31.1
		c0-17.4,3.7-27.3,14.2-38.6c3.9-4.1,7.9-7.2,12.5-9.5c6.3-3.1,7.7-3.4,18.1-3.8c9.9-0.4,12-0.1,17.5,1.9
		c8.3,3.1,12.6,5.9,17.4,11.4c11.3,12.8,15.9,33.6,11.8,53.3c-3.3,16-11.4,26.8-25.1,33.4c-7.6,3.7-9.3,4.1-17.7,4.4
		C1541.7,468.7,1535.9,468.5,1534,468.1z M808.5,260.1c-4.8,2.2-6.5,2.2-12.9,0.2c-6.8-2.1-14.9-7.4-22.4-14.7
		c-11.2-10.9-17.1-23.6-15.8-34.3c1.7-14.4,7.1-25.9,9.3-19.6c1.9,5.6,5.7,12.3,7.4,13.3c3.1,1.7,3.4-1,1.1-8.7
		c-4.5-14.7-4-18,4.1-26.1c7.1-7.2,8.2-6.9,13.8,4.3c2.5,4.9,5.1,9.1,5.8,9.3c1.8,0.5,1.6-8.1-0.3-13.3c-2-5.6-1.8-7.8,0.8-10.2
		c4.1-3.7,11.1-5.7,18-4.9c18.1,1.9,32.9,12.3,40.6,28.4c3.4,7.2,3.7,8.3,3.7,17.3c0,9.3-0.1,9.8-3.7,15.5c-2,3.2-4.4,6.1-5.3,6.2
		c-0.9,0.2-4-1.2-6.8-3.1c-6.4-4.2-7.8-4.7-10-3.5c-2.2,1.1-1.5,2.6,4.7,9.3c7.4,8,7.4,11.6-0.2,19.7c-4.3,4.6-5,5-8.1,4.5
		c-1.9-0.3-5-1.8-7-3.4c-5.6-4.5-9.7-6.6-11.5-5.9c-2,0.8-2.1,4-0.2,5.6c0.8,0.6,1.7,2.8,2.1,4.7
		C816.3,254.9,814.5,257.4,808.5,260.1z M1282.5,465.1c7.7,2.3,14.2,2.4,22.4,0.3c9.3-2.3,15.7-5.8,21.7-11.9
		c6.4-6.5,10.1-14.1,12.6-25.9c1.9-8.7,1.9-9.4,0.2-19.5c-0.9-5.8-2.3-11.4-3.1-12.5c-0.7-1.1-1.3-2.6-1.3-3.3
		c0-4.1-11.6-16.9-18.3-20.4c-6.2-3.1-17-5.8-23.4-5.8c-12,0-26.7,6.6-33.1,14.8c-3.8,4.9-7.2,10.9-7.2,12.8c0,0.8-0.8,2.7-1.8,4.1
		c-1.5,2.2-1.7,5-1.7,17.7c0,13.6,0.3,15.6,2.5,21c3.4,8.3,5.9,12.2,11.6,17.8C1269.2,459.8,1274,462.6,1282.5,465.1z M1530.1,464.9
		c7.7,2.8,20.6,2.8,28.3,0.1c9-3.1,16-8.2,21.1-15c2.5-3.4,4.5-6.6,4.5-7.3c0-0.6,0.7-2.4,1.4-3.9c2.4-4.5,3.9-18.1,3.2-28.5
		c-0.7-9.3-3.6-20.3-6.2-23.4c-0.8-0.9-1.4-2-1.4-2.4c0-1.9-7.3-9.5-11.8-12.4c-7-4.5-14.2-6.4-24.7-6.4
		c-20.9-0.1-35.9,11.4-42.6,32.8c-2.8,9-3,26.4-0.4,34.6C1506.6,449.5,1515.8,459.7,1530.1,464.9z M810.1,257.7c2.9-2,3.4-2.9,3.3-6
		c-0.1-2-0.8-4.5-1.8-5.5c-3.2-3.5-1.4-8.1,3-8.1c1.2,0,5.1,2.2,8.5,4.8c9.1,7,10.2,7.1,16,1.3c4-4,4.8-5.4,4.8-8.6
		c0-3.1-0.9-4.8-5.5-9.9c-6.7-7.5-7.2-11-1.5-11.5c2.8-0.2,4.6,0.5,9,3.8c3,2.2,5.9,3.9,6.5,3.7s2.5-2.6,4.2-5.5
		c8-13.3,3.8-32.8-10-46c-3.4-3.3-8.2-6.9-10.5-8.2c-12.7-6.5-31-6.7-36.1-0.5c-1.1,1.3-1.1,2.5-0.2,5.9c0.6,2.4,1.4,7.2,1.8,10.8
		c0.6,5.7,0.4,6.6-1.1,7.2c-1.1,0.4-2.5,0-3.5-0.9c-1.8-1.6-6.9-11.3-6.9-13.1c0-0.5-1-2-2.1-3.2l-2.1-2.3l-4.4,4.3
		c-6,5.9-7.8,10-7,16c0.4,2.6,1.3,6.4,2.1,8.3c2.1,5,2,12.5-0.2,13.3c-2,0.8-8.1-5.8-8.9-9.7c-1-4.5-1.3-5-2.8-4.5
		c-2.6,1-5.6,12.4-5.6,21.2c0,11,4.8,20,16.3,30.9C789.1,258.6,802.1,263.1,810.1,257.7z M955.8,183.4c-1.7,0.9-3.8,1.5-4.7,1.5
		c-3-0.1-8.6-3.8-13.1-8.6c-3.8-4.1-18.9-20.3-38.6-41.4c-2.8-3-7.3-8-10-11c-4.7-5.3-19.3-21.1-38-40.9c-5-5.3-9.6-11.1-10.4-12.9
		c-1.2-3-1.2-3.7,0.5-6.8c2-3.7,7.1-8.1,12-10.4l3-1.4v-13c0-10.9,0.4-13.8,2.2-18.3c3-7.4,6.5-11.6,11.6-14.1
		c9-4.3,18.6-1.4,24.5,7.5c3,4.5,3.2,5.6,3.2,12.4c0,10.5-2.9,16.1-15.6,30.8c-5,5.8-6.1,7.7-5.4,9.1c0.5,1,6.5,7.6,13.2,14.7
		c6.8,7.1,22.9,24.4,35.9,38.4s24.6,26.4,25.9,27.5c5.5,4.9,12.2,14.6,12.8,18.4C965.8,173.2,962.5,180.1,955.8,183.4z M954.8,181.9
		c4.9-1.7,8.2-7.5,8.2-14.1c0-5-0.4-6.1-4.1-10.8c-2.2-2.8-9.3-10.7-15.8-17.4c-6.4-6.7-16.8-17.8-23.1-24.7
		c-6.3-6.8-17.9-19.3-25.8-27.6c-14.2-15-20.3-22-20.3-23.3c0-0.4,1.2-1.8,2.6-3.1c5.1-4.7,14.6-17.4,17.1-22.9
		c2-4.3,2.5-7.2,2.5-12.6c0-8.1-1.8-11.9-7.9-16.5c-3.4-2.5-4.8-2.9-10.3-3h-6.5l-5,5.2c-7,7.2-8.9,14.3-8.4,29.9l0.4,11.2l-3,1.5
		c-6.7,3.4-10.6,6.5-12.1,9.7c-1.5,3.1-1.5,3.6,0.2,7.1c1,2.1,3.8,5.8,6.4,8.3c5.3,5.2,27.6,29,34.2,36.4
		c2.4,2.8,10.3,11.3,17.4,19.1s17.7,19.2,23.5,25.4c16.8,18.2,20.5,21.8,23.1,22.3c1.3,0.2,2.7,0.5,3,0.6
		C951.4,182.9,953.1,182.5,954.8,181.9z M134.6,348.6c-21.3,1.2-57.5,1.2-59,0.1c-1.4-1.1-1.6-4.3-1.6-27.6
		c0-14.5,0.2-26.6,0.5-26.9c1.1-1.1,56-1.3,61.5-0.2c10.2,2.1,16.9,6.9,22,15.9c1.9,3.4,2.6,16.8,1.2,21.3
		c-1.6,4.7-8.4,12.3-13.3,14.9C143.2,347.4,139.1,348.3,134.6,348.6z M75.7,347.4c0.4,0.4,15.1,0.6,32.8,0.4l32-0.3l5-2.6
		c5.9-3.1,8.5-5.8,11.5-11.6c1.9-3.7,2.1-5.4,1.8-12c-0.5-9.1-2.8-14.2-8.6-19.4c-7.5-6.8-10.9-7.3-44.1-7
		c-16.2,0.2-29.8,0.5-30.2,0.8C74.8,296.2,74.7,346.4,75.7,347.4z M360,439.5c-2.7,1.4-5.1,2.5-5.2,2.5s-2.5-1.1-5.3-2.3
		c-7.2-3.4-11.5-8.6-11.5-14.1c0-5,3.9-12.8,7.6-15.3c1.3-0.9,2.4-2.4,2.4-3.5c0-5.5,10.8-15.1,19.8-17.6c7.4-2,7.8-2.4,9.3-8
		c2.2-8.2,3.9-8.8,11.8-4.8c4.8,2.4,8.2,5.6,12,11.1c1.1,1.7,3.1,3.6,4.4,4.3c2.3,1.2,9.8,13.7,9.8,16.3c0,0.8,1.6,2.4,3.5,3.6
		c6.6,4.3,10.1,13.9,7.3,19.9c-1.4,3-11,8.8-16.4,9.9c-3.1,0.6-11.6-2.3-12.9-4.5c-0.5-0.8-1.5-0.7-3.4,0.4
		c-4,2.1-12.1,4.6-15.4,4.6c-1.6,0-5.1-1.1-7.8-2.5l-5-2.5L360,439.5z M570,274.5c0.7,21,0.7,33.3,0.1,33.9
		c-0.6,0.6-1.1,0.4-1.5-0.5c-2.6-7.1-3.5-10.5-4-15.6c-0.7-6.4-2.9-17.7-5.1-26.4c-2.7-10.6-6.5-28.3-9.4-43.5
		c-1.4-7.1-3.7-23.9-5-35c-1.1-10-1.2-36.3-0.1-43c2.7-16.8,5-24.6,10.1-34.2c3.6-6.9,11.3-15.6,13.1-15c0.9,0.3,1.1,17.9,1,73.3
		C569,208.7,569.4,256.3,570,274.5z M360.5,437.4l4.8-2.6l4.7,2.6c6.5,3.5,12.8,3.2,21.1-1.1c3.1-1.6,6.5-1.8,7.4-0.4s7.3,4,9.9,4
		c2.7,0,13.7-5.5,15.4-7.7c3.3-4.4-0.1-15.5-6-19.4c-2.2-1.4-4.4-4.5-6.6-9.2c-1.9-3.9-5.3-9.1-7.7-11.6c-2.4-2.5-6.3-6.5-8.6-9
		c-7.1-7.4-15.8-8.9-15.8-2.8c0,5.5-6,10.8-12.2,10.8c-1.3,0-4.5,1.8-7.1,4c-2.7,2.2-5.2,4-5.5,4c-0.8,0-5.1,8.2-5.1,9.7
		c0,0.5-1.4,2.3-3.1,3.9c-6.4,6.1-7.8,15-3.2,20.5c2.5,2.9,9.2,6.9,11.9,6.9C355.2,440,357.9,438.9,360.5,437.4z M583.4,291.3
		c-1.7,9.6-3.2,13.5-4.7,12.1c-1.1-1.1-0.9-206.2,0.2-206.8c2.3-1.4,6.8,3.3,12.9,13.9c5,8.6,9.5,25.1,11.3,41.1
		c1.2,10.6,1.1,13.5-1,32.4c-2.4,22.1-4.2,35.3-6.1,44.2c-2.8,12.8-4,18.7-4.6,22.5c-0.3,2.2-1.2,6.7-2,10
		C587.9,267.6,585.9,277.8,583.4,291.3z M579,196.5c-0.1,63.9,0.3,98.5,0.9,98.5c1.1,0,4.1-9.2,4.1-12.8c0-2.4,1.2-8.4,5-25.3
		c1.1-4.7,2-9.5,2-10.5s0.7-4.8,1.5-8.4c3-13.2,4.6-21.7,5.5-28.5c0.5-3.9,1.4-9.9,2-13.5s1.3-14.1,1.7-23.5
		c1-27.1-1.2-40.6-9.9-59.5c-2.8-6.1-9.4-15-11.2-15C579.3,98,579.1,112.3,579,196.5z M565.6,292.5c0.3,0.9,1,1.5,1.6,1.3
		c1.2-0.4,1.1-196.1-0.1-196.6c-1.4-0.5-8.9,9.1-12,15.4c-3.3,6.7-6.4,16.7-8.3,26.9c-2.6,13.8-1.6,46.1,2.3,69.5
		c3,18.4,3.8,23,4.8,27c0.6,2.5,1.5,6.8,2.1,9.5s1.8,7.7,2.6,11c3,12.5,6.4,29.1,6.4,31.7C565,289.6,565.3,291.6,565.6,292.5z
		 M822.1,394.2c-1.8-3.4,6.9-17.8,15.8-25.9c2-1.8,6.9-4.9,11-7l7.5-3.8h27l7.8,3.9c11.8,5.9,21.2,17.3,23.1,27.9
		c0.1,0.3,0.1,0.6,0.2,0.8c0.3,1.3,0.5,2.4,0.1,3.2c-1.2,2.7-8.5,2.7-40.7,2.7c-1.9,0-3.9,0-6.1,0C825.6,396,823,395.9,822.1,394.2z
		 M409,480.7c-1.8,0.9-9.1,1.3-26,1.3c-25.6,0-26.9-0.2-29.2-5.8c-4.1-10.3-5.1-13.2-6-17.5c-0.5-2.7-2.1-6.6-3.4-8.7
		c-4.5-7.2-2.8-9.2,4.6-5.5c5.9,3,7.7,3.1,10.7,1c3.6-2.5,7.9-2.1,11.3,1.1c3,2.9,3,2.9,6,1.1c5.8-3.4,8.9-3.8,12.8-1.4l3.5,2.2
		l1.5-2.2c1.7-2.5,5-2.8,7.8-0.7c3,2.3,8.2,1.9,11.6-1c3.1-2.6,7.2-3.3,8.4-1.4c0.6,1-2,10.8-5.1,18.9c-0.7,1.9-1.6,5.1-1.9,7
		C414.6,474.3,411.8,479.3,409,480.7z M824.8,393.9c0.6,0.4,20.7,0.5,44.6,0.4L913,394v-3.1c0-1.7-0.6-4.3-1.4-5.7s-2-4-2.8-5.6
		c-2.5-5.5-11.8-13.6-19.6-17.1c-7-3.2-8-3.4-18.6-3.4c-15.5,0-22.7,2.6-33,12C829.4,378.6,821.8,392,824.8,393.9z M409.2,478
		c1.6-1.3,3.1-4.1,4.2-8.2c1-3.5,3-10.2,4.6-15s2.9-9.2,2.9-9.8c0-1.9-3.8-1.1-6.9,1.5c-3.4,2.8-6.5,2.9-12.8,0.3
		c-3-1.2-3.4-1.2-5.7,1l-2.5,2.3l-4.1-2.3l-4.1-2.3l-11,5.7l-3.2-3.1c-3.5-3.4-7.6-4.1-9.6-1.6c-0.8,0.9-2.9,1.5-5.5,1.5
		s-4.8-0.6-5.5-1.5c-1.7-2.1-5-1.9-5,0.2c0,1,0.9,2.9,2,4.2s2,3.4,2,4.6c0,3.5,6.9,21.9,8.7,23.2c1.2,0.9,8,1.2,25.4,1.2
		C405.1,480,406.9,479.9,409.2,478z M593,301.8c-2.9,4.7-4.4,4.2-3.6-1c1.6-9.6,2.5-13.8,5-24.8c1.5-6.3,3.6-15.8,4.6-21
		c1-5.2,2.6-12.6,3.4-16.5c2.1-9.6,3.3-17,5-30c0.8-6.1,1.9-14.4,2.5-18.4c0.7-4.4,0.9-16.8,0.7-30.5c-0.3-19.6-0.7-24.2-2.5-30.8
		c-3.8-13.9-6.2-19.8-10.9-26.7c-5.5-8.2-1.5-8.8,9.2-1.6c13,8.8,20,18,25.8,33.9c2.9,7.9,3,8.6,3,26.2c0,9.9-0.5,20-1.1,22.5
		s-1.8,7.4-2.6,11c-3.4,14.1-8.3,28.3-19.4,55.5c-5.7,14-9.2,23-11.8,30.5c-1.3,3.6-2.3,5.5-2.4,4.3c0-1.2,0.6-3.7,1.4-5.5
		c0.8-1.8,2.1-5.2,3-7.5c2-5.3,4.4-11.5,6.6-16.8c5.2-12.7,12.8-32.3,15.9-41.5c2.8-8.1,5.6-18.8,8.3-31c0.7-3,1.2-12.9,1.2-22
		c0-13.1-0.4-17.3-1.7-20.4c-0.9-2.1-1.7-4.6-1.7-5.5c0-2.5-6.7-15-10.8-20.1c-2-2.6-5.3-6-7.2-7.6c-4.4-3.8-13.3-9.4-14.8-9.4
		c-1.7,0-1.4,2.4,0.6,5.1c1.6,2.1,3.5,6.2,7.2,15.4c5.5,13.8,7.8,36.9,6.1,62.7c-0.7,9.8-1.5,19-2,20.6s-1.1,5.7-1.5,9.3
		c-1.2,11.7-6.6,39.2-13.8,69.4c-2.6,11.2-3.3,17.5-2,17.5c0.6,0,1.1-0.7,1.1-1.6c0-2,3.1-8.6,3.8-8c0.3,0.3-0.2,2.1-1.1,3.9
		c-0.9,1.9-1.6,4.3-1.6,5.3C595,297.7,594.1,300,593,301.8z M867.9,51.8c0-0.1-0.3-3.7-0.6-7.9c-1.3-18.4,8-30.6,16.7-21.9
		c3.6,3.6,3.8,7.1,0.6,14.3c-3.1,7-11.1,15.8-14.2,15.8C869.1,52,868,51.9,867.9,51.8z M870.8,49.4c0.4,0.4,3.2-1.9,6.2-5.2
		c5.3-5.7,8-11.3,8-16.4c0-2.7-3.7-6.8-6.2-6.8c-3.2,0-6.7,3.1-7.8,6.9C869.8,32.1,869.6,48.3,870.8,49.4z M557.8,300.5
		c-0.5,4-2.5,4.2-3.4,0.3c-0.4-1.8-1.3-4.2-2.1-5.3c-0.8-1.1-1.4-2.8-1.4-3.8c0-2.1-5.5-16.9-10.8-28.8c-2-4.6-8.2-19.7-10.7-26
		c-0.8-1.9-3-8.2-4.9-14s-4.1-11.9-4.7-13.5c-0.6-1.6-1.3-4.6-1.5-6.5c-0.3-2.8,0-2.4,1.5,2c1,3,2.7,8.2,3.7,11.5s2.6,8,3.5,10.5
		s3.2,8.3,5,13s3.8,9.9,4.5,11.5c6.6,15.1,15.5,38.1,15.5,40c0,2.3,2,1.8,2.9-0.6c0.7-1.9,1-1.6,2,2.3
		C557.6,295.6,558,298.9,557.8,300.5z M866.7,180.8c1.9,4,3.3,7.7,3.2,8.2c-0.2,0.5-0.9-0.5-1.7-2.3c-3.4-8-5.8-12.6-9.2-17.3
		c-5.7-7.8-14.5-15.3-19.9-17c-1.4-0.4-3-1.2-3.7-1.8c-2.9-2.3-22.9-3.8-32.3-2.4l-4.5,0.7l4.5-1.6c5.9-2,16.9-2,25,0.1
		C845.9,152.2,857.9,162.5,866.7,180.8z"/>
	<path class="st2" d="M158.1,522c-11.6,1.1-120.8,1.2-128.1,0.1c-9.2-1.4-15.6-6.4-20.6-16.3l-2.5-5L7,379.3
		C7.1,258,7.1,257.8,9.2,253.6c4.9-9.7,9.6-13.6,18.7-15.5c8.2-1.8,110.2-1.5,126.2,0.3c14.2,1.6,27.4,5.5,38.3,11.3
		c9.8,5.2,22,17.4,27,27c2.1,4,3.8,7.7,3.8,8.3c0,0.6,0.6,2.5,1.4,4.3c3.6,7.9,3.6,37.8-0.1,44.9c-0.8,1.5-1.4,3.4-1.4,4.3
		c0,2-4.1,9.5-8.5,15.5c-3.4,4.6-12,13-16.9,16.3c-1.5,1-2.3,2.2-1.9,2.7c0.5,0.5,4.7,2.7,9.3,5.1c6.5,3.2,10.3,6,16,11.8
		c8.9,9,12,14.8,16.6,31c2.7,9.6,2.6,32.7-0.4,43c-2.9,10.1-4.1,12.9-10.4,22.5C214.2,505.8,188.5,519.1,158.1,522z M802.7,302.9
		c-12.9,1.9-27.1,0.8-37.7-2.9c-14.4-5-31.6-16.8-39.7-27.2c-5-6.5-12.8-21.2-13.8-25.9c-0.4-1.9-1.3-5.3-2.1-7.7
		c-2.2-6.9-1.9-26.9,0.7-36.2c5-18.2,13.6-30.3,32.9-46.5c7.7-6.5,14-12.2,14-12.8c0-0.7-1.9-0.8-5.2-0.4c-17.3,2.2-22,1.8-30.4-3
		c-9-5.1-13.5-15.1-11.3-24.7c2.9-12.7,11.5-19.8,27.5-22.8c2.8-0.5,8.4-1.5,12.5-2.3c15.6-2.9,40.1-5.8,65.2-7.6
		c7.9-0.6,12.4-1.4,14-2.4c4.2-3,5.9-2,16.1,9.2c5.4,5.9,15,16.4,21.5,23.4s19.2,20.7,28.2,30.5c9.1,9.8,22.2,24,29.2,31.5
		s12.8,14.3,12.8,15.1s-2.6,3.9-5.8,6.8s-16.1,15.5-28.8,27.9c-63.3,62.3-66.9,65.6-73.5,69.3C820.8,298.8,812.7,301.5,802.7,302.9z
		 M589.9,521.3c-4,2.9-5.1,3.2-12.9,3.5c-7.8,0.2-9,0-13.5-2.5c-6.5-3.6-11.1-9.7-12-15.9c-1.4-9-0.3-49.7,2.1-77.8
		c0.8-9.4,1.4-21.3,1.4-26.6c0-12.3,0.7-15.8,3.4-16.8c1.2-0.5,3-1.8,4.1-3c1.9-2.1,2-3.5,1.8-20.2l-0.2-17.9l-3.4-3.2
		c-3-2.8-5.6-8.6-5.6-12.4c0-0.7-0.6-2.7-1.4-4.5c-0.8-1.8-2.4-6.4-3.6-10.3c-1.2-3.9-2.6-7.9-3.1-9s-1.8-4.5-3-7.5
		s-2.8-6.7-3.6-8.1c-0.8-1.5-1.4-3.2-1.4-3.9c0-0.7-0.6-2.6-1.4-4.4c-2.3-5.1-7.5-17.7-10.2-24.6c-1.4-3.6-2.9-7.3-3.4-8.2
		s-1.6-3.4-2.3-5.5c-0.8-2.1-3-8.3-5.1-13.8c-12.4-33.6-17.6-68.3-13-85.8c0.8-3.2,1.5-6.5,1.5-7.4c0-2.8,7.3-18.6,11.2-24.3
		c10.4-15.1,27.7-26.3,45.5-29.4c10.6-1.8,13.8-1.9,21.8-0.4c18,3.3,31.6,10.6,43.1,23.2c6.3,6.9,15.5,22.7,15.5,26.7
		c0,1,0.7,3.5,1.6,5.7c1.3,3.1,1.6,7.5,1.6,22.9c0,10.6-0.5,21-1.1,23.5s-1.8,7.4-2.5,11c-2.2,10.1-6.6,25.2-8.2,28.1
		c-0.8,1.5-1.4,3.3-1.4,4c0,1.2-2.5,8.1-5.5,15.4c-1.7,3.9-7.3,17.6-11.9,29c-2,5-4.1,9.9-4.6,11c-3.1,6.8-14.9,41.8-14.9,44.3
		c-0.1,3.2-4.5,11.5-6.9,13c-2,1.2-2.1,2.1-2.1,21.1c0,18.4,0.2,20.1,2,22.4c1.1,1.4,3,2.7,4.2,2.9c2.2,0.3,2.2,0.7,2.9,18.3
		c0.4,9.9,1.2,22.5,1.7,28s1.3,16.3,1.6,24s1,21.3,1.6,30.3C601.6,507.9,599.9,514,589.9,521.3z M866.7,180.8
		c-8.7-18.3-20.8-28.6-38.7-33.2c-8.1-2.1-19.1-2.1-25-0.1l-4.5,1.6l4.5-0.7c1.2-0.2,2.5-0.3,3.9-0.4c-5.9,0.7-11,2.5-17.4,6.1
		c-4.4,2.4-8.4,4.6-8.9,4.8c-3.3,1.3-14.3,10.7-17.6,15c-8,10.6-14.9,29.2-14.9,39.8c0,12.4,7,26.2,19.6,38.5
		C778,262.4,786.8,268,794,269c2.5,0.4,4.7,0.7,5,0.8c0.3,0.1,3.4-0.3,7-0.8c5.7-0.8,14-4.2,17.6-7.1c0.6-0.5,3.8-0.6,7-0.3l5.9,0.6
		l7.7-7.1c7.9-7.4,11.8-13.6,11.8-18.7c0-2.4,1.1-4,5.3-7.6c4.5-3.9,5.6-5.6,7.5-11.4c2.9-8.9,3.1-22.3,0.6-28.4
		c0.2,0.2,0.4,0.2,0.4,0C870,188.5,868.6,184.8,866.7,180.8z M1423.5,359.8c-0.9,1.2-2.2,2.2-3,2.2c-1.2,0-4.6-4.1-4.6-5.5
		c0-0.3-2.3-4.5-5.1-9.3c-16.3-27.5-38-45.3-64.9-53.1c-12-3.5-17.4-5.3-18.8-6.4c-2-1.6-1.5-9.6,1-14.5c3-6,11.3-13.2,20.1-17.5
		c14.5-7.1,17.9-7.1,15.9,0c-4,14-4.2,15.6-2,16.1c2.6,0.5,4.8-1.8,12.6-13.3c3.8-5.6,7.6-10.7,8.5-11.5c0.9-0.7,5.4-1.7,10-2.1
		c4.6-0.4,9.4-1.1,10.5-1.4c1.2-0.4,2.8-0.1,3.6,0.5c1.2,1,1,2-1.5,6.8c-6.7,12.9-8.3,18.9-5.4,19.9c2,0.7,10-7.5,15.7-16.2
		c3-4.5,6.2-8.8,7-9.5c1.2-1,3.9-1,12.6-0.2c6.1,0.6,11.5,1.4,12,1.7c1.7,1.1,1,3.3-3.6,11c-4.4,7.4-5.6,11.5-3.4,11.5
		c2.6,0,10.2-5.6,14.1-10.3c2.3-2.8,4.7-5.5,5.3-5.9c5.2-3.7,23.5,9.3,25.1,17.8c0.8,4.4,0.1,6.2-5.1,12.9
		c-4.1,5.3-4.5,6.2-4.5,11.5c0,6.5-1,7.8-11,14.2c-12.4,8-23.4,20.4-33.6,37.6C1428,352.7,1424.4,358.5,1423.5,359.8z M1920.1,276.6
		c-9.6,3.1-18.2,3-27.4-0.2c-12.5-4.4-20.1-11.1-25.5-22.4c-2.3-4.9-2.6-6.7-2.6-16.5c0-10.6,0.1-11.3,3.5-17.9
		c8.5-17,24-25.6,43.5-24.2c16,1.1,29.5,9.9,36.1,23.4c3.6,7.3,3.7,7.9,3.7,18.2c0,9.6-0.3,11.2-2.9,16.4
		c-3.1,6.4-12.4,16.4-17.7,19.1C1929,273.4,1924.2,275.3,1920.1,276.6z M76.2,463.8c0.9,0.9,9.6,1.2,32.8,1.2
		c35.6,0,41.5-0.8,50.4-7c9-6.2,14-18.2,11.8-28.6c-2.3-10.8-6.6-16.5-16.1-21.1l-5.7-2.8L75,404.9v28.8
		C75,454.9,75.3,462.9,76.2,463.8z M134.6,348.6c4.5-0.2,8.6-1.1,11.1-2.4c5-2.5,11.8-10.1,13.3-14.9c1.5-4.5,0.8-17.9-1.2-21.3
		c-5.1-9-11.8-13.9-22-15.9c-5.5-1.1-60.3-1-61.5,0.2c-0.3,0.3-0.5,12.4-0.5,26.9c0,23.3,0.2,26.5,1.6,27.6
		C77.1,349.8,113.3,349.8,134.6,348.6z M570,274.5c-0.6-18.1-0.9-65.8-0.8-105.9c0.2-55.4-0.1-73-1-73.3c-1.8-0.6-9.5,8.2-13.1,15
		c-5.1,9.7-7.4,17.4-10.1,34.2c-1.1,6.7-1.1,33,0.1,43c1.2,11.1,3.6,27.9,5,35c2.9,15.2,6.7,32.9,9.4,43.5c2.2,8.6,4.4,20,5.1,26.4
		c0.5,5.1,1.4,8.4,4,15.6c0.3,0.9,0.9,1.1,1.5,0.5C570.6,307.8,570.6,295.5,570,274.5z M583.4,291.3c2.5-13.5,4.5-23.7,6.1-30.8
		c0.8-3.3,1.6-7.8,2-10c0.6-3.8,1.8-9.7,4.6-22.5c1.9-8.8,3.8-22.1,6.1-44.2c2-18.8,2.1-21.7,1-32.4c-1.8-16-6.3-32.5-11.3-41.1
		C585.8,99.8,581.3,95,579,96.4c-1.1,0.7-1.3,205.8-0.2,206.8C580.2,304.8,581.7,300.9,583.4,291.3z M593,301.8c1.1-1.8,2-4.1,2-5.1
		s0.7-3.4,1.6-5.3c0.9-1.9,1.4-3.7,1.1-3.9c-0.2-0.2-0.7,0.4-1.2,1.3c0.8-1.8,1.5-3.8,1.5-4.7c0-1.1,0.6-3.5,1.4-5.3
		c-0.8,1.8-1.4,4.3-1.4,5.5s1.1-0.7,2.4-4.3c2.7-7.5,6.2-16.5,11.8-30.5c11-27.2,16-41.4,19.4-55.5c0.9-3.6,2-8.5,2.6-11
		s1.1-12.6,1.1-22.5c0-17.5-0.1-18.2-3-26.2c-5.8-15.9-12.8-25.1-25.8-33.9c-10.7-7.3-14.7-6.6-9.2,1.6c4.7,7,7,12.8,10.9,26.7
		c1.8,6.6,2.2,11.2,2.5,30.8c0.2,13.7,0,26.1-0.7,30.5c-0.6,4.1-1.7,12.4-2.5,18.4c-1.7,13-3,20.4-5,30c-0.8,3.9-2.4,11.3-3.4,16.5
		c-1,5.2-3.1,14.7-4.6,21c-2.6,11-3.4,15.2-5,24.8C588.6,306,590.2,306.4,593,301.8z M557.8,300.5c0.2-1.6-0.2-4.9-0.9-7.3
		c-1.1-3.9-1.4-4.2-2-2.3c-0.9,2.3-2.7,2.9-2.8,1c0.1,0.7,0.6,1.1,1.2,1c1.9-0.6,2.1-6.6,0.4-12.8c-2-7.4-6.9-29.2-10.2-45.5
		c-3.7-18.2-5-26.2-7.6-47.5c-1.4-11.5-0.5-42.4,1.6-52.5c2.9-14.2,7.2-26.3,11.7-32.7c2-2.9,2.5-5.8,0.8-5.8
		c-2.5,0-14.4,8.7-19.7,14.4c-12.2,13-17.8,29-17.7,50.6c0.1,13.5,3.1,31.3,7.9,45.5c0.7,2.2,2.1,6.7,3.1,10s2.6,8,3.5,10.5
		c-1-2.5-2.5-7.2-3.5-10.5s-2.7-8.5-3.7-11.5c-1.5-4.4-1.8-4.8-1.5-2c0.2,1.9,0.9,4.9,1.5,6.5s2.7,7.7,4.7,13.5s4.2,12.1,4.9,14
		c2.5,6.3,8.7,21.4,10.7,26c5.3,11.9,10.8,26.7,10.8,28.8c0,1,0.6,2.7,1.4,3.8c0.8,1.1,1.7,3.5,2.1,5.3
		C555.3,304.7,557.4,304.5,557.8,300.5z M569.4,512c3.9,2.5,7.6,2.5,11.8,0c4.7-2.8,7-7.8,5.5-12.4c-1.8-5.9-5-8.1-11.8-8.1
		c-6.7,0-8.9,1.4-10.9,7.1c-1.1,3.2-1.1,4.1,0.4,7.5C565.5,508.2,567.7,510.9,569.4,512z M835.5,150.9c-2.8-1.1-8.2-2.1-13.7-2.7
		c6.4,0.5,12,1.4,13.5,2.6C835.3,150.8,835.4,150.9,835.5,150.9z M861.4,173.3c-3.1-5-7.2-9.7-11.6-13.7c3.3,2.9,6.5,6.4,9.1,9.9
		C859.8,170.7,860.6,172,861.4,173.3z M592.5,290.9c0.4-2.9,1.2-6.7,2.3-11.4C593.9,283.2,593,288,592.5,290.9z M866.6,183.3
		c-0.6-1.3-1.3-2.7-1.8-3.8c-0.1-0.2-0.2-0.4-0.3-0.6C865.2,180.3,865.9,181.7,866.6,183.3z M840.2,153c-0.3,0-1-0.3-1.8-0.7
		c0.2,0.1,0.4,0.1,0.5,0.2C839.4,152.6,839.8,152.8,840.2,153z M595,291.8c-0.6,1.4-1,2.8-1,3.6c0,0.9-0.5,1.6-1.1,1.6
		c0.6,0,1.1-0.8,1.1-1.8C594,294.6,594.4,293.3,595,291.8z M547,277.1c-3.1-8-7.1-17.9-10.5-25.6C540,259.4,544,269.2,547,277.1z"/>
</g>
</svg>
