<?xml version="1.0" encoding="utf-8"?>
<!-- Generator: Adobe Illustrator 27.3.1, SVG Export Plug-In . SVG Version: 6.00 Build 0)  -->
<svg version="1.1" id="Layer_1" xmlns="http://www.w3.org/2000/svg" xmlns:xlink="http://www.w3.org/1999/xlink" x="0px" y="0px"
	 viewBox="0 0 1024 1024" style="enable-background:new 0 0 1024 1024;" xml:space="preserve">
<style type="text/css">
	.st0{fill:#E7AB39;}
	.st1{fill:#6639A6;}
</style>
<g>
	<path class="st0" d="M304.1,599.7c-24.6,13.3-50.2,23.7-55.9,23.7c-25.6-0.9-89-37.9-112.7-65.3c-43.6-52.2-30.3-136.5,30.3-194.3
		c16.1-15.2,29.4-32.2,29.4-36.9c0-14.2,40.7-91.9,48.3-91.9c3.8,0,27.5-17,52.1-37.9c25.6-20.8,55.9-37.9,67.2-37.9
		c58.7,0,115.5-51.1,115.5-102.3c0-57.8,82.4-43.6,149.6,26.5c22.7,23.7,59.7,61.6,81.4,85.2c22.7,23.7,54.9,72.9,72.9,109.9
		c20.8,45.5,42.6,73.9,62.5,87.1c55.9,36.9,89,142.1,56.8,183.7c-15.2,20.8-119.3,72.9-145.8,72.9c-24.6,0-85.2-24.6-93.8-37.9
		c-8.5-13.3-39.8-12.3-70.1,3.8c-78.6,40.7-138.3,43.6-199.8,10.4l-44.4-24.4L304.1,599.7z"/>
	<path class="st1" d="M761.5,984.2c-21.8,17-39.8,18.9-248.1,18.9c-164.8,0-228.2-2.8-240.6-11.4c-17-12.3-82.4-185.6-82.4-219.7
		c0-10.4-8.5-30.3-18.9-43.6s-18.9-31.3-18.9-39.8c0-20.8,30.3-21.8,47.4-1.9c7.6,8.5,27.5,14.2,52.1,14.2s45.5-5.7,52.1-14.2
		c18.9-23.7,57.8-17,90.9,15.2l30.3,29.4l104.2-54l38.8,21.8l38.8,21.8l23.6-21.8c21.8-19.9,25.6-20.8,54-9.5
		c58.7,24.6,89,23.7,121.2-2.8c29.4-24.6,65.3-33.1,65.3-14.2c0,5.7-12.3,47.4-27.5,92.8s-35,108.9-43.6,142.1
		C790.9,945.3,777.6,972.8,761.5,984.2z"/>
</g>
</svg>
