<?xml version="1.0" encoding="utf-8"?>
<!-- Generator: Adobe Illustrator 27.3.1, SVG Export Plug-In . SVG Version: 6.00 Build 0)  -->
<svg version="1.1" id="Layer_1" xmlns="http://www.w3.org/2000/svg" xmlns:xlink="http://www.w3.org/1999/xlink" x="0px" y="0px"
	 viewBox="0 0 1024 1024" style="enable-background:new 0 0 1024 1024;" xml:space="preserve">
<style type="text/css">
	.st0{fill:#E7AB39;}
	.st1{fill:#6639A6;}
</style>
<g>
	<path class="st0" d="M246.2,599.6c-24.6,13.3-50.2,23.7-55.9,23.7c-25.6-0.9-89-37.9-112.7-65.3C34,505.8,47.3,421.5,107.9,363.7
		c16.1-15.2,29.4-32.2,29.4-36.9c0-14.2,40.7-91.9,48.3-91.9c3.8,0,27.5-17,52.1-37.9c25.6-20.8,55.9-37.9,67.2-37.9
		c58.7,0,115.5-51.1,115.5-102.3c0-57.8,82.4-43.6,149.6,26.5c22.7,23.7,59.7,61.6,81.4,85.2c22.7,23.7,54.9,72.9,72.9,109.9
		c20.8,45.5,42.6,73.9,62.5,87.1c55.9,36.9,89,142.1,56.8,183.7c-15.2,20.8-119.3,72.9-145.8,72.9c-24.6,0-85.2-24.6-93.8-37.9
		c-8.5-13.3-39.8-12.3-70.1,3.8c-78.6,40.7-138.3,43.6-199.8,10.4L289.7,574L246.2,599.6z"/>
	<path class="st1" d="M703.7,984.1c-21.8,17-39.8,18.9-248.1,18.9c-164.8,0-228.2-2.8-240.6-11.4c-17-12.3-82.4-185.6-82.4-219.7
		c0-10.4-8.5-30.3-18.9-43.6c-10.4-13.3-18.9-31.3-18.9-39.8c0-20.8,30.3-21.8,47.4-1.9c7.6,8.5,27.5,14.2,52.1,14.2
		s45.5-5.7,52.1-14.2c18.9-23.7,57.8-17,90.9,15.2l30.3,29.4l104.2-54l38.8,21.8l38.8,21.8L573,699c21.8-19.9,25.6-20.8,54-9.5
		c58.7,24.6,89,23.7,121.2-2.8c29.4-24.6,65.3-33.1,65.3-14.2c0,5.7-12.3,47.4-27.5,92.8s-35,108.9-43.6,142.1
		C733.1,945.2,719.8,972.7,703.7,984.1z"/>
	<g>
		<path class="st1" d="M966.1,935.5c-4.4,9.6-6.1,11.4-20.4,20.8c-14.3,9.3-16.8,10.3-27.9,11.1c-16,1.2-31-4.1-39.3-13.8
			c-12.2-14-53.4-85.8-78.9-137.3c-8.5-17.2-20.1-38.5-25.7-47.7c-13.1-21.3-15.5-28.2-11.5-33c1.7-2.2,3.7-6.6,4.5-9.9
			c1.3-5.8,0-8.4-18.1-37.1l-19.4-30.8l-9.8-1.7c-8.6-1.4-19.6-8.5-23.6-15.1c-0.7-1.2-4-4-7.4-6.2c-3.4-2.2-11.3-8.3-17.7-13.7
			c-6.4-5.4-13.3-10.7-15.4-12.1s-8.1-5.7-13.6-9.6c-5.4-3.8-12.4-8.4-15.3-9.9c-3.1-1.7-6-3.9-6.8-5.2c-0.7-1.2-3.9-3.8-7.3-6
			c-9.7-6.2-32.8-22.1-45.2-31c-6.4-4.6-13.2-9.3-15.1-10.3c-1.9-1-6.6-4.1-10.1-6.9c-3.7-2.7-14.4-11-24.2-18.1
			c-58.9-44.1-105.5-98.3-115.6-133.9c-1.9-6.5-4.1-13-5.1-14.5c-3-4.9-6.2-40.6-5-55c3.3-38.1,23.7-77.3,53.6-103.1
			c17.9-15.3,23.7-19.1,40.3-25.7c37.1-14.9,70.3-17.8,105.1-9.1c19.1,4.7,53.1,21.6,57.3,28.5c1.1,1.7,5,5.3,9.1,8
			c5.7,3.9,11,11.2,27.4,37.9c11.3,18.4,21.4,37,23,42s4.5,14.9,7,21.9c6.6,20,14.5,51.3,14.6,58.1c0.1,3.5,0.9,7.3,1.6,8.5
			c1.3,2.1,4,16.9,6.1,33c1,8.7,5.1,38.9,8.6,63.9c1.6,11,2.9,21.9,3.1,24.3c1.4,15.3,16.7,89.5,19.3,93.9c3.2,5.7,3.8,25.1,1,30.4
			c-2.5,4.4-1.7,6,18.5,39c19.6,31.9,21.8,34.6,27.6,36.5c3.5,1.2,8.5,1.2,10.9,0.2c4.4-2,4.9-1.3,24.9,28.4
			c11.3,16.7,26.2,37.6,33,46.6c6.8,9,19.8,26.8,28.5,39.8c8.8,13,24.5,35.8,35.2,50.7C973.7,898.8,977,911.4,966.1,935.5z"/>
		<path class="st0" d="M666.4,530.4c-20.4-30.7-71.7-113.1-114.2-182.7c-58.6-96.3-77.9-126.5-79.9-125.9c-4,1-9,25.1-8.5,41
			c0.8,22.7,4.7,38.6,17.5,70.9c5.1,12.9,33.1,58.5,45.9,74.4c14.1,17.9,36.4,44.2,46.6,55c21.6,23,47.5,49.4,63.8,64.7
			c13.3,12.4,29.5,29.6,37.6,39.9c6.4,8.3,11.6,13,24.1,22.5c1.5,1.2,2.9,0.9,3.3-0.9C703,587.4,689.9,566.1,666.4,530.4z"/>
		<path class="st0" d="M709.3,544.2c-9.7-26.3-16.8-46.2-21.4-60.4c-2-6.6-5.3-15.4-6.9-19.6c-2.9-7.3-7-18.9-15.4-44.3
			c-5.8-17.4-16.4-42.7-35.6-83.6c-16.3-34.9-19.2-40-32.6-57.3c-20.4-25.7-46.3-49.1-64.8-58.3c-22.6-11.2-36.1-14.4-38.9-9.3
			c-1.3,2.5,216.6,358.3,219.7,358.8C717.7,571.2,716.3,562.7,709.3,544.2z"/>
		<path class="st0" d="M738.4,551.4c0.1-4.4-0.6-9.4-1.7-11.1c-1.1-1.7-2.3-6.7-2.7-11c-0.3-4.3-1.3-8-2.1-8
			c-0.6-0.1-0.9,1.5-0.9,3.6c-0.4-4-1.2-8.3-2.2-9.9c-1.2-1.9-2.6-6.8-3-10.8c0.4,4,2,9.1,3.2,11.1c1.3,2.1,1.3-2.5-0.1-10.2
			c-2.9-16.1-6-35.7-10.4-66.4c-8.4-59.8-14.2-90.1-22.8-118.4c-2.2-7.3-5.3-17-6.9-22c-1.5-5-11.4-23.1-21.9-40.3
			c-18.6-30.3-19.6-31.4-33.5-42c-27.7-20.9-50.6-28.9-84.2-29.2c-27.7-0.4-34.5,5.4-15.5,13.3c16.2,6.8,26.7,14.2,48.8,33.8
			c10.4,9.4,16,16.9,37.4,50.5c15,23.5,27.8,45.3,31.1,53.7c3.2,7.8,10,23.4,14.9,34.8c10.7,24.5,16.1,38.8,22.6,57.7
			c2.7,7.7,7.5,22.3,11.2,32.5c3.7,10.2,9.9,29,13.8,41.7c6.9,22,9.8,30.2,17.1,48.7C734.6,563.7,738,562.5,738.4,551.4z"/>
		<path class="st0" d="M671.3,589.4c-1.3-3-5.6-8.3-9.4-11.6c-6.2-5.5-7.1-5.7-6.2-1.7c0.8,5-2,8.1-4.2,4.9c0.9,1.1,2.3,1.2,3.3,0.4
			c2.9-3.2-3.1-13.8-12.9-22.7c-11.6-10.5-43.9-42.7-67.5-67.2c-26.3-27.3-37.2-39.7-64.7-73.6c-14.8-18.3-46-72.9-52.9-92.9
			c-9.7-27.9-14.5-53.8-13-70.1c0.6-7.3-1.5-12.9-4.7-11c-4.7,2.9-17.6,31.6-21.4,47.5c-8.9,36.5-2.4,70.7,20.8,108
			c14.6,23.3,39.1,50.7,63.2,69.8c3.6,3,11,9.2,16.4,13.8c5.4,4.6,13.4,10.9,17.7,14.2c-4.5-3.2-12.3-9.6-17.7-14.2
			c-5.4-4.6-14.1-11.6-19.1-15.7c-7.5-5.9-8.5-6.3-4.9-1.7c2.4,3.1,6.9,7.5,9.7,9.6c2.8,2.1,13.2,10.3,23.1,18
			c9.9,7.8,20.7,16.2,24,18.7c11.4,8.1,39,27.1,47.6,32.8c22.6,14.6,48.6,33.9,50.8,37.6c1.1,1.7,4,4,6.7,5c2.7,1,6.9,4.1,9.6,6.8
			C671.1,599.6,674.8,596.8,671.3,589.4z"/>
		<path class="st0" d="M725.8,533c-2.3-5.5-4.9-13-7.8-22.4C720.3,518.1,723.7,527.4,725.8,533z"/>
		<path class="st0" d="M731.5,531.7c0.4,3.1,1.1,6,2,7.4c1,1.6,0.8,3.3-0.4,4c1.1-0.7,1.2-2.6,0.1-4.4
			C732.6,537.7,731.9,535,731.5,531.7z"/>
		<path class="st0" d="M626.2,561.2c-14.3-10.3-32.3-22.9-46.8-32.4C594.3,538.6,612.2,551,626.2,561.2z"/>
	</g>
</g>
</svg>
